<?xml version="1.0" encoding="iso-8859-1"?>
<!-- Generator: Adobe Illustrator 16.0.0, SVG Export Plug-In . SVG Version: 6.00 Build 0)  -->
<!DOCTYPE svg PUBLIC "-//W3C//DTD SVG 1.1//EN" "http://www.w3.org/Graphics/SVG/1.1/DTD/svg11.dtd">
<svg version="1.1" id="Capa_1" xmlns="http://www.w3.org/2000/svg" xmlns:xlink="http://www.w3.org/1999/xlink" x="0px" y="0px"
	 width="32.024px" height="32.024px" viewBox="0 0 32.024 32.024" style="enable-background:new 0 0 32.024 32.024;"
	 xml:space="preserve">
<g>
	<path d="M31.643,12.678c-0.416-0.833-0.624-1.111-0.624-1.111s0.277-1.527,0.485-2.499c0.209-0.972,0.625-1.527,0.417-1.735
		c-0.208-0.277-0.625-0.486-0.765-0.486c-0.139-0.069-0.833,0.208-0.972,0.069c-0.139-0.069-1.041-0.208-1.041,0.07
		c0,0.277-0.348,2.082-0.486,2.707c-0.208,0.555-0.276,1.25-0.833,1.388c-0.556,0.138-1.805,1.319-3.054,2.083
		c-1.25,0.833-6.456,2.429-9.163,2.707c-2.707,0.278-5.137,0.069-7.913-0.694c-2.777-0.763-4.512-2.082-4.998-2.499
		c0,0-0.694-0.347-1.25-0.139c-0.486,0.139-0.833,0.347-0.972,0.833c-0.139,0.486-0.278,0.625-0.417,0.833
		c-0.139,0.208,0,0.625,0.139,0.764s0.486,1.388,0.556,1.527c0.069,0.208,1.319,3.541,4.165,5.275
		c2.846,1.735,4.651,2.985,8.538,3.332c3.818,0.277,5.901-0.068,8.122-0.347c2.222-0.278,4.998-1.25,6.595-2.916
		c1.598-1.666,3.609-3.609,3.817-5.484C32.06,14.552,32.06,13.511,31.643,12.678z M28.59,20.312
		c-1.249,1.666-3.68,2.708-5.138,3.193c-1.458,0.486-4.649,0.902-7.705,0.833c-3.054,0-6.802-1.11-9.718-2.915
		c-2.916-1.735-4.512-5.415-4.651-5.901c-0.208-0.486,0.278-0.833,0.625-0.902c0.347-0.069,1.18,0.833,2.638,1.735
		c1.458,0.903,3.471,1.458,6.664,2.083s7.357,0.14,7.498,0.14c0.139,0,0.763-0.069,0.556-0.348c-0.209-0.276-1.042,0.069-2.083,0.14
		c-0.972,0.068-2.43-0.14-3.609-0.208c-1.18-0.069-4.79-0.694-6.525-1.181c-1.735-0.486-4.442-2.43-4.72-2.569
		c-0.278-0.139,0.277-0.972,0.486-0.764c1.527,1.388,5.345,2.499,7.982,3.054c2.638,0.556,5.275,0,10.065-1.18
		c4.722-1.18,6.039-3.124,6.248-3.332c0.207-0.208,1.181-0.486,1.666-0.556c0.416-0.069,1.109-2.083,1.181-2.568
		c0.068-0.486,0.555,0.069,0.832,0.347c0.277,0.278-0.416,1.527-0.556,2.013c-0.139,0.486,0.416,0.625,0.694,1.18
		c0.277,0.556,0.347,1.735,0.347,3.055C31.366,16.982,29.839,18.646,28.59,20.312z M29.215,13.927
		c-0.417,0.555-1.807,1.735-2.291,2.082c-0.557,0.347-2.499,1.319-3.609,1.735c-1.11,0.348-2.151,0.625-2.013,0.833
		c0.276,0.556,3.332-0.833,4.789-1.457c1.458-0.695,2.291-1.182,3.055-2.152c0.764-0.971,1.457-1.805,1.11-2.083
		C29.908,12.747,29.632,13.441,29.215,13.927z"/>
</g>
<g>
</g>
<g>
</g>
<g>
</g>
<g>
</g>
<g>
</g>
<g>
</g>
<g>
</g>
<g>
</g>
<g>
</g>
<g>
</g>
<g>
</g>
<g>
</g>
<g>
</g>
<g>
</g>
<g>
</g>
</svg>
