<?xml version="1.0" encoding="iso-8859-1"?>
<!-- Generator: Adobe Illustrator 16.0.0, SVG Export Plug-In . SVG Version: 6.00 Build 0)  -->
<!DOCTYPE svg PUBLIC "-//W3C//DTD SVG 1.1//EN" "http://www.w3.org/Graphics/SVG/1.1/DTD/svg11.dtd">
<svg version="1.1" id="Capa_1" xmlns="http://www.w3.org/2000/svg" xmlns:xlink="http://www.w3.org/1999/xlink" x="0px" y="0px"
	 width="550.692px" height="550.692px" viewBox="0 0 550.692 550.692" style="enable-background:new 0 0 550.692 550.692;"
	 xml:space="preserve">
<g>
	<path d="M77.296,277.792c0-63,30-118.7,75.9-155.4c9.8-6.7,17.1,0,14.1,4.9c-31.8,74.7-8.6,148.1,45.3,162.8
		c-15.9-37.9-23.3-80.8-18.4-124.8c7.3-64.9,39.2-120.6,85.1-159.7c4.3-3.7,8.6-6.1,11.6-5.5l0,0c3.101,0.6,4.9,2.4,3.7,6.7
		c-3.7,12.9-6.1,26.3-7.3,39.8c-6.1,54.5,6.1,105.9,31.2,149.9c37.899,0,53.899-44.1,58.1-74.7c0-7.3,5.5-12.2,16.5-3.7
		c49,36.1,81.4,93.6,81.4,159.101c0,109.5-88.7,198.3-198.9,198.3C166.096,476.092,77.296,387.292,77.296,277.792z M481.196,507.292
		h-411.2c-12.2,0-22,9.8-22,22s9.8,21.4,22,21.4h411.3c12.2,0,21.4-9.801,21.4-21.4
		C502.696,517.092,493.496,507.292,481.196,507.292z"/>
</g>
<g>
</g>
<g>
</g>
<g>
</g>
<g>
</g>
<g>
</g>
<g>
</g>
<g>
</g>
<g>
</g>
<g>
</g>
<g>
</g>
<g>
</g>
<g>
</g>
<g>
</g>
<g>
</g>
<g>
</g>
</svg>
