<?xml version="1.0" encoding="iso-8859-1"?>
<!-- Generator: Adobe Illustrator 16.0.0, SVG Export Plug-In . SVG Version: 6.00 Build 0)  -->
<!DOCTYPE svg PUBLIC "-//W3C//DTD SVG 1.1//EN" "http://www.w3.org/Graphics/SVG/1.1/DTD/svg11.dtd">
<svg version="1.1" id="Capa_1" xmlns="http://www.w3.org/2000/svg" xmlns:xlink="http://www.w3.org/1999/xlink" x="0px" y="0px"
	 width="79.536px" height="79.536px" viewBox="0 0 79.536 79.536" style="enable-background:new 0 0 79.536 79.536;"
	 xml:space="preserve">
<g>
	<path style="fill:#010002;" d="M72.46,49.078c-3.401-6.934-8.662-11.156-21.557-11.156h-1.351h-1.311
		c-4.691,0-7.337,0.35-11.324,1.613C30.007,41.71,4.42,72.468,4.42,72.468c-1.566,1.564-1.566,4.096,0,5.66
		c0.779,0.776,1.802,1.17,2.819,1.17c1.022,0,2.053-0.389,2.833-1.17l24.353-22.463c0.049,0.58,0.495,23.871,0.495,23.871h29.287
		l0.632-20.345l1.974,20.345h9.48C75.08,66.85,73.454,51.118,72.46,49.078z M43.284,79.35h-6.659l22.108-39.551
		c2.2,0.445,4.028,1.113,5.582,1.947L43.284,79.35z M63.398,20.85c0,7.646-6.198,13.833-13.831,13.833h-0.015
		c-0.011,0-0.011,0-0.021,0c-7.624,0-13.823-6.188-13.823-13.833c0-1.48,0.298-2.889,0.72-4.223h13.129h13.121
		C63.108,17.96,63.398,19.363,63.398,20.85z M63.818,3.674l-1.145,10.812H49.553H36.428L35.284,3.674L49.553,0L63.818,3.674z"/>
</g>
<g>
</g>
<g>
</g>
<g>
</g>
<g>
</g>
<g>
</g>
<g>
</g>
<g>
</g>
<g>
</g>
<g>
</g>
<g>
</g>
<g>
</g>
<g>
</g>
<g>
</g>
<g>
</g>
<g>
</g>
</svg>
