<?xml version="1.0" encoding="iso-8859-1"?>
<!-- Generator: Adobe Illustrator 16.0.0, SVG Export Plug-In . SVG Version: 6.00 Build 0)  -->
<!DOCTYPE svg PUBLIC "-//W3C//DTD SVG 1.1//EN" "http://www.w3.org/Graphics/SVG/1.1/DTD/svg11.dtd">
<svg version="1.1" id="Capa_1" xmlns="http://www.w3.org/2000/svg" xmlns:xlink="http://www.w3.org/1999/xlink" x="0px" y="0px"
	 width="290.513px" height="290.513px" viewBox="0 0 290.513 290.513" style="enable-background:new 0 0 290.513 290.513;"
	 xml:space="preserve">
<g>
	<g>
		<path d="M290.501,167.757c0.301-4.1-5.399-4.3-6.699-0.9c-2.5,6.801-3.601,13.7-4.5,20.9c-21.4-40.9-49-78.2-65.5-121.6
			c-1.101-2.9-3.301-4.9-6.601-5c-19.5-0.4-101.3-15.2-122.1,0.5c-2,0.1-4,1-5.1,3c-24,43.2-43.3,88.5-69.5,130.4
			c-0.9-4.2-2-8.399-3.4-12.3c-1.3-3.6-7.2-3.3-7.1,1c0.3,11.6,1.7,22.9,1,34.6c-0.1,2.4,1.4,4.4,3.3,5.7l0.6,0.4c1.5,1,4,1,5.5,0
			l0.5-0.4c1.8-1.2,3.5-3.3,3.3-5.7c-0.4-3-0.8-6.199-1.2-9.3c0.3-0.3,0.6-0.5,0.9-0.8c0.4-0.6,0.8-1.2,1.3-1.8
			c43.3,13,87.1,15.5,132,10.399c-0.3,3.9-0.8,7.7-1.5,11.5c-1.7,9,11.4,10.801,12.299,1.7c0.4-4.7,0.7-9.5,0.9-14.2
			c39.2-3.199,79,1.301,117.7-7.5c-0.5,3.801-0.8,7.7-0.8,11.4c0,6.7,8.5,6.8,10.8,1.5
			C293.001,205.557,289.201,184.458,290.501,167.757z M28.202,198.357c-0.7,0.7-1.1,1.4-1.3,2.2c-2.3-0.399-4.6-0.6-6.9-1
			c22.6-32,39.3-67.5,57.2-102.3c-0.9,16-4.3,31.3-9.3,46.8C59.901,168.057,46.401,182.158,28.202,198.357z M42.401,202.658
			c22.4-11.301,33.6-41.5,37.9-70.801c3.5,28.801,12.8,57.801,33.7,73C90.001,205.757,66.302,205.357,42.401,202.658z
			 M123.302,204.458c0.3-1.3,0.1-2.601-1-3.8c-30-31.9-34.9-74.601-38.4-116.601c0-0.1,0.1-0.1,0.1-0.2
			c15,41.2,42.9,77.2,55.6,119.601C134.202,203.857,128.702,204.257,123.302,204.458z M158.802,202.158
			c-0.101-5.5-0.301-11.101-0.7-16.5c-0.4-5.4-7.101-6.101-9.101-2c-4-11.801-11.699-23.9-15.799-31.9c-13.3-26-30.8-51.7-39.8-79.7
			c5.9-0.2,12.1-1.3,17.3-1.3c23.4-0.1,46.9,1.6,70.299,3c9.9,0.6,20.2-2.9,24.101,7.4c4.6,12.1,11,23.6,17.2,34.9
			c14.699,27.1,32.1,52.5,46.399,79.9C232.302,201.557,195.501,199.958,158.802,202.158z"/>
	</g>
</g>
<g>
</g>
<g>
</g>
<g>
</g>
<g>
</g>
<g>
</g>
<g>
</g>
<g>
</g>
<g>
</g>
<g>
</g>
<g>
</g>
<g>
</g>
<g>
</g>
<g>
</g>
<g>
</g>
<g>
</g>
</svg>
