<?xml version="1.0" encoding="iso-8859-1"?>
<!-- Generator: Adobe Illustrator 16.0.0, SVG Export Plug-In . SVG Version: 6.00 Build 0)  -->
<!DOCTYPE svg PUBLIC "-//W3C//DTD SVG 1.1//EN" "http://www.w3.org/Graphics/SVG/1.1/DTD/svg11.dtd">
<svg version="1.1" id="Capa_1" xmlns="http://www.w3.org/2000/svg" xmlns:xlink="http://www.w3.org/1999/xlink" x="0px" y="0px"
	 width="106.048px" height="106.048px" viewBox="0 0 106.048 106.048" style="enable-background:new 0 0 106.048 106.048;"
	 xml:space="preserve">
<g>
	<path style="fill:#010002;" d="M84.838,0H21.209C9.543,0,0,9.543,0,21.209v63.629c0,11.666,9.543,21.21,21.209,21.21h63.628
		c11.667,0,21.21-9.544,21.21-21.21V21.209C106.048,9.543,96.505,0,84.838,0z M86.796,62.743l2.884-0.969l1.269,3.791l-2.495,0.828
		c-1.067-0.155-1.854-0.487-2.403-0.974L86.796,62.743z M74.689,58.398c0.187-1.273,0.668-2.04,1.439-2.305
		c0.543,0.213,1.087,0.415,1.626,0.596c1.118,0.353,1.734,0.497,1.864,0.456l-0.021-0.072c0.694-0.228,1.201,0.181,1.533,1.206
		c0.311,0.896,0.373,1.822,0.196,2.791c-0.176,0.963-0.528,1.605-1.035,1.916c-0.218,0.072-1.021,0.414-2.444,1.03l-1.253,0.067
		L75.859,63.4c-0.425-0.435-0.693-0.808-0.808-1.16C74.627,60.962,74.503,59.678,74.689,58.398z M74.089,67.579l2.889-0.968
		l1.264,3.779l-2.496,0.84c-1.056-0.156-1.854-0.492-2.397-0.975L74.089,67.579z M71.521,60.987
		c0.248,0.726-0.031,1.232-0.845,1.507l-2.252,0.746l-1.486-1.714c-0.295-0.85,0.088-1.662,1.098-2.444l2.978,1.01
		C71.282,60.429,71.447,60.739,71.521,60.987z M67.046,52.048c0.741-0.238,1.419-0.189,2.077,0.127
		c0.662,0.328,1.071,0.753,1.248,1.263c0.207,0.637-0.13,1.46-1.025,2.486l-3.418,0.424l-0.124-3.526
		C66.254,52.436,66.652,52.18,67.046,52.048z M18.527,32.021l-2.604-4.073l-1.134,0.733l-1.533-2.393l12.073-7.736l1.533,2.387
		l-1.134,0.725l2.615,4.072l-1.294,5.9l7.482,12.381l6.208-3.987c0,0,6.568,9.714,5.895,13.748
		c-0.678,4.044-2.752,7.777-2.752,7.777s-4.262,0.327-8.218-0.75c-3.951-1.082-10.032-11.092-10.032-11.092l6.234-3.998L24.371,33.3
		L18.527,32.021z M23.527,87.494l0.714-4.51l6.411-3.562l-0.997-7.55l8.505-0.74l0.44-3.931l9.88-0.85l0.566-7.062l1.696-2.258
		l3.948,0.85l0.455,3.76l6.323-0.399l0.398,7.109l7.109,2.771l0.398,5.53c0.611,0.85,3.713-0.513,4.257,0.28
		c-0.497-0.782,0.549,0.797,0,0c-0.699,3.277,4.147,3.836,4.147,3.836l0.948,3.035l3.158,3.666L23.527,87.494z M83.398,81.482
		c-0.16-0.378-0.922-1.123-2.294-2.247c-1.278-1.149-1.941-1.761-1.973-1.823c-0.306-0.926-0.114-2.195,0.569-3.801
		c0.699-1.688,1.533-2.982,2.538-3.883l0.32-0.104c2.134-0.71,3.915-0.26,5.37,1.346c0.891,1.005,1.776,2.817,2.651,5.442
		c0.108,0.326,0.099,0.663-0.036,1.021c-0.141,0.362-0.357,0.725-0.652,1.077c-0.301,0.347-0.663,0.673-1.104,0.963
		c-0.43,0.279-0.886,0.497-1.352,0.652L83.398,81.482z M90.285,86.526c-1.051-0.155-1.843-0.487-2.392-0.974l0.74-2.678l2.895-0.968
		l1.264,3.785L90.285,86.526z M25.028,31.363l-5.24-1.149l-2.151-3.363l6.382-4.088l2.149,3.36L25.028,31.363z"/>
</g>
<g>
</g>
<g>
</g>
<g>
</g>
<g>
</g>
<g>
</g>
<g>
</g>
<g>
</g>
<g>
</g>
<g>
</g>
<g>
</g>
<g>
</g>
<g>
</g>
<g>
</g>
<g>
</g>
<g>
</g>
</svg>
