<?xml version="1.0" encoding="iso-8859-1"?>
<!-- Generator: Adobe Illustrator 16.0.0, SVG Export Plug-In . SVG Version: 6.00 Build 0)  -->
<!DOCTYPE svg PUBLIC "-//W3C//DTD SVG 1.1//EN" "http://www.w3.org/Graphics/SVG/1.1/DTD/svg11.dtd">
<svg version="1.1" id="Capa_1" xmlns="http://www.w3.org/2000/svg" xmlns:xlink="http://www.w3.org/1999/xlink" x="0px" y="0px"
	 width="421.72px" height="421.72px" viewBox="0 0 421.72 421.72" style="enable-background:new 0 0 421.72 421.72;"
	 xml:space="preserve">
<g>
	<path style="fill:#030303;" d="M350.288,36.35l-9.006,9.006C264.621-15.262,156.396-15.102,79.9,45.738l-9.392-9.389l-34.16,34.159
		l9.392,9.389c-60.84,76.496-61,184.727-0.386,261.394l-9.006,9.006l34.16,34.159l8.92-8.92
		c76.773,61.435,185.393,61.595,262.328,0.383l8.531,8.531l34.159-34.159l-8.531-8.531c61.212-76.941,61.052-185.561-0.383-262.337
		l8.914-8.914L350.288,36.35z M250.766,284.923l9.063,9.063c-30.3,17.868-68.333,17.742-98.527-0.332l8.729-8.731l-34.16-34.159
		l-8.542,8.543c-17.4-29.991-17.271-67.599,0.334-97.487l8.208,8.211l34.16-34.16l-8.208-8.211
		c29.885-17.605,67.496-17.731,97.48-0.332l-8.542,8.542l34.159,34.16l8.731-8.731c18.074,30.197,18.206,68.233,0.331,98.533
		l-9.062-9.062L250.766,284.923z M52.914,350.291l80.961-80.961l2.007-2.008l17.597,17.595l-2.099,2.093l-80.873,80.881
		L52.914,350.291z M284.926,153.472l-17.595-17.595l2.007-2.007L350.3,52.909l17.594,17.594l-80.875,80.87L284.926,153.472z
		 M332.979,53.658l-65.134,65.134c-34.896-21.631-79.769-21.494-114.555,0.343L88.197,54.041
		C160.024-2.316,260.996-2.47,332.979,53.658z M52.914,70.509l17.595-17.595l0.294,0.292l81.047,81.047l1.624,1.624l-17.597,17.595
		l-1.621-1.624L53.209,70.8L52.914,70.509z M54.043,88.194l65.094,65.094c-21.84,34.789-21.975,79.663-0.346,114.561l-65.134,65.14
		C-2.47,260.998-2.313,160.024,54.043,88.194z M87.726,367.233l65.057-65.054c35.086,22.323,80.372,22.466,115.584,0.343
		l65.094,65.095C261.201,424.328,159.815,424.174,87.726,367.233z M269.807,287.404l-2.476-2.476l17.595-17.595l2.481,2.477
		l80.481,80.486l-17.595,17.594L269.807,287.404z M367.613,333.463l-65.094-65.094c22.123-35.212,21.986-80.504-0.343-115.59
		l65.054-65.048C424.171,159.818,424.325,261.204,367.613,333.463z"/>
</g>
<g>
</g>
<g>
</g>
<g>
</g>
<g>
</g>
<g>
</g>
<g>
</g>
<g>
</g>
<g>
</g>
<g>
</g>
<g>
</g>
<g>
</g>
<g>
</g>
<g>
</g>
<g>
</g>
<g>
</g>
</svg>
