<?xml version="1.0" encoding="iso-8859-1"?>
<!-- Generator: Adobe Illustrator 16.0.0, SVG Export Plug-In . SVG Version: 6.00 Build 0)  -->
<!DOCTYPE svg PUBLIC "-//W3C//DTD SVG 1.1//EN" "http://www.w3.org/Graphics/SVG/1.1/DTD/svg11.dtd">
<svg version="1.1" id="Capa_1" xmlns="http://www.w3.org/2000/svg" xmlns:xlink="http://www.w3.org/1999/xlink" x="0px" y="0px"
	 width="124.237px" height="124.237px" viewBox="0 0 124.237 124.237" style="enable-background:new 0 0 124.237 124.237;"
	 xml:space="preserve">
<g>
	<g>
		<path d="M18.891,10.163c0,24.193,0,48.385,0,72.578c34.557,11.924,66.804-11.925,101.357,0c0-24.193,0-48.385,0-72.578
			C85.693-1.761,53.448,22.089,18.891,10.163z M56.525,31.748c0.323-1.054,0.484-1.582,0.809-2.638
			c0.322,0.93,0.481,1.396,0.805,2.325c1.046-0.209,1.569-0.319,2.613-0.543c-0.846,0.796-1.269,1.192-2.112,1.979
			c0.322,0.928,0.481,1.39,0.805,2.317c-0.846-0.438-1.267-0.659-2.11-1.108c-0.848,0.778-1.269,1.164-2.112,1.93
			c0.323-1.051,0.482-1.577,0.805-2.63c-0.846-0.457-1.267-0.688-2.112-1.161C54.958,32.041,55.481,31.946,56.525,31.748z
			 M47.951,24.807c0.322-1.028,0.483-1.542,0.807-2.574c0.322,0.956,0.484,1.433,0.808,2.386c1.044-0.131,1.567-0.205,2.612-0.364
			c-0.847,0.743-1.268,1.11-2.114,1.835c0.324,0.951,0.485,1.426,0.808,2.375c-0.846-0.496-1.268-0.748-2.113-1.263
			c-0.846,0.712-1.267,1.063-2.113,1.754c0.323-1.023,0.484-1.536,0.807-2.562c-0.846-0.529-1.269-0.797-2.112-1.349
			C46.384,24.969,46.904,24.919,47.951,24.807z M47.951,40.83c0.322-1.028,0.483-1.543,0.807-2.574
			c0.322,0.956,0.484,1.432,0.808,2.385c1.044-0.131,1.567-0.204,2.612-0.364c-0.847,0.743-1.268,1.111-2.114,1.834
			c0.324,0.952,0.485,1.426,0.808,2.374c-0.846-0.496-1.268-0.748-2.113-1.263c-0.846,0.713-1.267,1.064-2.113,1.755
			c0.323-1.022,0.484-1.535,0.807-2.561c-0.846-0.528-1.269-0.797-2.112-1.348C46.384,40.991,46.904,40.942,47.951,40.83z
			 M40.407,33.479c0.322-0.994,0.485-1.491,0.81-2.489c0.322,0.988,0.484,1.481,0.807,2.467c1.044-0.028,1.567-0.053,2.612-0.12
			c-0.847,0.668-1.268,0.997-2.113,1.64c0.323,0.982,0.484,1.471,0.807,2.45c-0.846-0.575-1.269-0.868-2.112-1.469
			c-0.847,0.626-1.268,0.933-2.113,1.53c0.322-0.987,0.483-1.483,0.807-2.474c-0.846-0.62-1.27-0.936-2.115-1.586
			C38.842,33.472,39.362,33.48,40.407,33.479z M31.186,24.496c0.323-0.939,0.484-1.409,0.808-2.353
			c0.322,1.043,0.481,1.563,0.807,2.601c1.045,0.143,1.566,0.201,2.612,0.291c-0.846,0.541-1.27,0.802-2.113,1.309
			c0.322,1.034,0.483,1.551,0.808,2.581c-0.847-0.708-1.27-1.07-2.113-1.814c-0.847,0.484-1.268,0.717-2.111,1.163
			c0.322-0.929,0.482-1.396,0.805-2.33c-0.846-0.767-1.267-1.16-2.113-1.966C29.619,24.215,30.142,24.318,31.186,24.496z
			 M31.186,40.518c0.323-0.938,0.484-1.408,0.808-2.353c0.322,1.043,0.481,1.563,0.807,2.601c1.045,0.143,1.566,0.201,2.612,0.291
			c-0.846,0.542-1.27,0.805-2.113,1.312c0.322,1.034,0.483,1.549,0.808,2.578c-0.847-0.707-1.27-1.069-2.113-1.813
			c-0.847,0.484-1.268,0.718-2.111,1.164c0.322-0.929,0.482-1.396,0.805-2.331c-0.846-0.767-1.267-1.16-2.113-1.966
			C29.619,40.237,30.142,40.34,31.186,40.518z M114.914,75.268c-31.091-6.868-59.596,11.141-90.688,4.275c0-2.307,0-3.46,0-5.767
			c31.091,6.87,59.598-11.142,90.688-4.274C114.914,71.809,114.914,72.962,114.914,75.268z M114.914,64.169
			c-31.091-6.871-59.596,11.142-90.688,4.274c0-2.217,0-3.326,0-5.543c31.091,6.869,59.598-11.143,90.688-4.273
			C114.914,60.844,114.914,61.952,114.914,64.169z M114.914,53.292c-31.091-6.87-59.598,11.144-90.688,4.273
			c0-2.258,0-3.387,0-5.645c31.093,6.866,59.598-11.144,90.688-4.274C114.914,49.904,114.914,51.034,114.914,53.292z M114.914,42.31
			c-16.323-3.762-30.235-1.358-46.349,2.375c0-2.439,0-3.657,0-6.096c16.109-3.732,30.027-6.139,46.349-2.375
			C114.914,38.654,114.914,39.871,114.914,42.31z M114.914,30.879c-16.323-3.762-30.237-1.358-46.349,2.375c0-2.21,0-3.314,0-5.524
			c16.109-3.734,30.027-6.138,46.349-2.375C114.914,27.566,114.914,28.67,114.914,30.879z M114.914,20.02
			c-16.323-3.762-30.235-1.357-46.349,2.374c0-2.663,0-3.994,0-6.658c16.109-3.733,30.027-6.139,46.349-2.374
			C114.914,16.025,114.914,17.356,114.914,20.02z"/>
		<path d="M12.828,0H9.476C6.451,0,3.989,2.461,3.989,5.487c0,2.111,1.183,3.959,2.976,4.873v113.877h8.616V10.232
			c1.664-0.958,2.734-2.738,2.734-4.745C18.315,2.462,15.852,0,12.828,0z"/>
	</g>
</g>
<g>
</g>
<g>
</g>
<g>
</g>
<g>
</g>
<g>
</g>
<g>
</g>
<g>
</g>
<g>
</g>
<g>
</g>
<g>
</g>
<g>
</g>
<g>
</g>
<g>
</g>
<g>
</g>
<g>
</g>
</svg>
