<?xml version="1.0" encoding="iso-8859-1"?>
<!-- Generator: Adobe Illustrator 16.0.0, SVG Export Plug-In . SVG Version: 6.00 Build 0)  -->
<!DOCTYPE svg PUBLIC "-//W3C//DTD SVG 1.1//EN" "http://www.w3.org/Graphics/SVG/1.1/DTD/svg11.dtd">
<svg version="1.1" id="Capa_1" xmlns="http://www.w3.org/2000/svg" xmlns:xlink="http://www.w3.org/1999/xlink" x="0px" y="0px"
	 width="533.333px" height="533.334px" viewBox="0 0 533.333 533.334" style="enable-background:new 0 0 533.333 533.334;"
	 xml:space="preserve">
<g>
	<path d="M466.667,116.667h-100V50c0-18.333-15-33.333-33.333-33.333H200c-18.333,0-33.333,15-33.333,33.333v66.667h-100
		C30,116.667,0,146.667,0,183.333V450c0,36.667,30,66.667,66.667,66.667h400c36.667,0,66.667-30,66.667-66.667V183.333
		C533.333,146.667,503.333,116.667,466.667,116.667z M200,50h133.333v66.667H200V50z M400,350H300v100h-66.667V350h-100v-66.667h100
		v-100H300v100h100V350z"/>
</g>
<g>
</g>
<g>
</g>
<g>
</g>
<g>
</g>
<g>
</g>
<g>
</g>
<g>
</g>
<g>
</g>
<g>
</g>
<g>
</g>
<g>
</g>
<g>
</g>
<g>
</g>
<g>
</g>
<g>
</g>
</svg>
