<?xml version="1.0" encoding="iso-8859-1"?>
<!-- Generator: Adobe Illustrator 16.0.0, SVG Export Plug-In . SVG Version: 6.00 Build 0)  -->
<!DOCTYPE svg PUBLIC "-//W3C//DTD SVG 1.1//EN" "http://www.w3.org/Graphics/SVG/1.1/DTD/svg11.dtd">
<svg version="1.1" id="Capa_1" xmlns="http://www.w3.org/2000/svg" xmlns:xlink="http://www.w3.org/1999/xlink" x="0px" y="0px"
	 width="962.301px" height="962.301px" viewBox="0 0 962.301 962.301" style="enable-background:new 0 0 962.301 962.301;"
	 xml:space="preserve">
<g>
	<path d="M276.05,624.9c-11-4.801-21.7-10.1-32.1-15.801l-49.9,85.201c-10.8-2.701-21.9-4.102-33.1-4.102
		c-18.2,0-35.9,3.602-52.5,10.602c-16.1,6.799-30.5,16.5-42.9,28.898c-12.4,12.4-22.1,26.801-28.9,42.9
		c-7.1,16.701-10.6,34.4-10.6,52.5s3.6,35.9,10.6,52.5c6.8,16.1,16.5,30.5,28.9,42.9s26.8,22.1,42.9,28.9
		c16.7,7.1,34.4,10.6,52.5,10.6s35.9-3.6,52.5-10.6c16.1-6.801,30.5-16.5,42.9-28.9s22.1-26.801,28.9-42.9
		c0.601-1.299,1.101-2.699,1.601-4H701.15l40,69.801c6.9,12.1,19.6,18.9,32.6,18.9c6.301,0,12.701-1.602,18.602-5
		c18-10.301,24.199-33.201,13.898-51.201L635.65,608.4c-12.299,6.799-24.9,12.9-37.9,18.4c-10.299,4.299-20.699,8.299-31.199,11.699
		l91.699,160h-365c-1.8-8.9-4.5-17.6-8-26c-6.3-15-15.2-28.6-26.4-40.301l54.5-93.1C300.75,635,288.351,630.301,276.05,624.9z
		 M196.151,873.6c-9.9,7.201-22,11.4-35.2,11.4c-33.1,0-59.9-26.801-59.9-59.9c0-30.1,22.2-55,51.2-59.299
		c2.9-0.4,5.8-0.602,8.7-0.602c23.6,0,44,13.602,53.7,33.4c0.8,1.701,1.6,3.4,2.2,5.1c2.5,6.602,3.9,13.801,3.9,21.4
		C220.851,845.1,211.151,862.699,196.151,873.6z"/>
	<path d="M886.25,331.3c27.602,0,50-22.4,50-50s-22.398-50-50-50h-40c0.301,6.5,0.5,13.1,0.5,19.8c0,27.2-2.6,54-7.898,80.2H886.25
		L886.25,331.3z"/>
	<path d="M821.75,251.2c0-6.7-0.199-13.3-0.5-19.8c-0.6-12-1.799-23.8-3.5-35.4c-2.898-19.5-19.799-33.9-39.5-33.9l-678.399-0.4l0,0
		c-19.9,0-36.8,14.7-39.6,34.4c-2.5,17.4-3.8,35.2-3.9,53.3c-0.7,145.5,80.5,272.901,200.3,338.2c22,12,45.3,21.9,69.7,29.4
		c34,10.5,70,16.4,107.3,16.9c1.8,0,3.6,0,5.5,0c40,0,78.599-6.1,114.8-17.5c24.299-7.6,47.5-17.6,69.4-29.701
		C719.15,534,789.951,441.4,813.451,331.3C818.852,305.5,821.75,278.7,821.75,251.2z M366.75,557.9c-1.7-0.5-3.3-1-5-1.5
		c-24.3-7.301-47.8-17-70-28.801c-100.5-53.4-174.5-150.7-174.2-273.4c0-1.3,0-1.9,0-1.9v-0.4c0.1-20.8,16.9-37.5,37.7-37.5
		c20.8,0,37.5,16.9,37.5,37.7c0,1.5-0.1,2.9-0.3,4.4c0,0,0,0,0,0.1l0,0c0,0.1-0.1,0.3-0.1,0.6c-0.1,0.6-0.2,1.6-0.3,3
		c-9.4,98.7,38.7,187.2,112.3,246c19.5,15.602,40.899,29.102,63.399,40.102c1,0.5,1.9,0.898,2.9,1.398
		C376.651,550.6,373.25,559.801,366.75,557.9z"/>
	<path d="M352.151,38.3c-9.4,0.4-19,1.4-28.3,3.6c-9.301,2.2-18.4,5.3-26.801,9.4c-8.399,4.1-16,9.1-22.5,14.7
		c-6.5,5.6-11.899,11.7-16.1,17.8s-7.1,12.2-9.2,17.7c-2,5.5-3.1,10.5-3.6,14.6c-0.1,1-0.2,2-0.3,2.9s-0.1,1.8-0.1,2.6
		c0,0.8,0,1.5,0,2.2c0,0.7,0.1,1.3,0.1,1.8c0.1,2.2,0.4,3.4,0.4,3.4s0.8-0.9,2.3-2.3c0.8-0.7,1.7-1.6,2.8-2.6s2.4-2.1,3.8-3.3
		c2.9-2.4,6.3-5.1,10.3-7.8c4-2.7,8.5-5.5,13.5-8c4.9-2.5,10.3-4.9,16-6.9c1.3-0.5,2.7-0.9,4.1-1.3c4.5-1.4,9.2-2.7,14.101-3.7
		c6.399-1.4,13-2.4,19.899-3.2c6.9-0.8,14.101-1.1,21.4-1.4l5.5-0.2l2.1-0.1l1.601-0.1l3.1-0.1l1.601-0.1h0.8h0.399h0.5
		c1.2-0.1,2.5-0.2,3.7-0.4c1.2-0.1,2.5-0.3,3.7-0.4l1.8-0.2c0.601-0.1,1.2-0.2,1.8-0.3c2.301-0.4,4.7-0.8,7-1.2
		c2.301-0.5,4.601-1.1,6.9-1.6c1.1-0.2,2.3-0.6,3.4-0.9c1.1-0.3,2.3-0.7,3.399-1c2.3-0.6,4.5-1.5,6.7-2.4c8.8-3.4,17.1-8,24.2-13.5
		c7.1-5.5,13-11.9,17.2-18.6c4.199-6.6,6.8-13.3,8.199-19.3c1.4-6,1.601-11.2,1.301-15.4c-0.101-2.1-0.4-4-0.7-5.5
		c-0.3-1.6-0.7-2.9-1-4c-0.7-2.1-1.2-3.2-1.2-3.2s-0.6,1.1-1.7,2.8c-0.6,0.9-1.3,2-2.1,3.2c-0.4,0.6-0.9,1.2-1.4,1.9s-1,1.4-1.6,2.1
		c-2.3,2.8-5.101,6-8.601,9s-7.5,5.9-12,8.3c-9,4.8-19.699,7.8-32.3,9.4c-0.1,0-0.2,0-0.3,0c-6.3,0.8-13,1.3-20.1,1.5l-1.301,0.1
		h-1.199h-2.5c-0.801,0-1.7,0-2.5,0h-0.301h-0.399h-0.8h-1.601h-3.1h-1.601h-0.8h-0.399h-0.101c0.2,0,0.3,0,0.4,0h-0.2H352.151z"/>
	<path d="M562.15,38.3c-9.4,0.4-19,1.4-28.299,3.6c-9.301,2.2-18.4,5.3-26.801,9.4s-16,9.1-22.5,14.7c-6.5,5.6-11.9,11.7-16.1,17.8
		s-7.1,12.2-9.2,17.7c-2,5.5-3.1,10.5-3.6,14.6c-0.101,1-0.2,2-0.3,2.9c-0.101,0.9-0.101,1.8-0.101,2.6c0,0.8,0,1.5,0,2.2
		c0,0.7,0.101,1.3,0.101,1.8c0.1,2.2,0.399,3.4,0.399,3.4s0.8-0.9,2.3-2.3c0.801-0.7,1.7-1.6,2.801-2.6c1.1-1,2.399-2.1,3.8-3.3
		c2.899-2.4,6.3-5.1,10.3-7.8c4-2.7,8.5-5.5,13.5-8c4.9-2.5,10.299-4.9,16-6.9c1.299-0.5,2.699-0.9,4.1-1.3
		c4.5-1.4,9.199-2.7,14.1-3.7c6.4-1.4,13-2.4,19.9-3.2s14.1-1.1,21.4-1.4l5.5-0.2l2.1-0.1l1.6-0.1l3.1-0.1l1.602-0.1h0.799h0.4h0.5
		c1.199-0.1,2.5-0.2,3.699-0.4c1.201-0.1,2.5-0.3,3.701-0.4l1.799-0.2c0.602-0.1,1.201-0.2,1.801-0.3c2.301-0.4,4.699-0.8,7-1.2
		c2.301-0.5,4.6-1.1,6.9-1.6c1.1-0.2,2.299-0.6,3.4-0.9c1.1-0.3,2.299-0.7,3.398-1c2.301-0.6,4.5-1.5,6.701-2.4
		c8.799-3.4,17.1-8,24.199-13.5s13-11.9,17.201-18.6c4.199-6.6,6.799-13.3,8.199-19.3s1.6-11.2,1.301-15.4
		c-0.102-2.1-0.4-4-0.701-5.5c-0.299-1.6-0.699-2.9-1-4c-0.699-2.1-1.199-3.2-1.199-3.2s-0.6,1.1-1.701,2.8
		c-0.6,0.9-1.299,2-2.1,3.2c-0.4,0.6-0.9,1.2-1.4,1.9s-1,1.4-1.6,2.1c-2.299,2.8-5.1,6-8.6,9s-7.5,5.9-12,8.3
		c-9,4.8-19.699,7.8-32.301,9.4c-0.1,0-0.199,0-0.299,0c-6.301,0.8-13,1.3-20.1,1.5l-1.301,0.1h-1.199h-2.5c-0.801,0-1.701,0-2.5,0
		h-0.301h-0.4h-0.799h-1.602h-3.1h-1.6h-0.801h-0.398h-0.102c0.201,0,0.301,0,0.4,0h-0.199H562.15z"/>
</g>
<g>
</g>
<g>
</g>
<g>
</g>
<g>
</g>
<g>
</g>
<g>
</g>
<g>
</g>
<g>
</g>
<g>
</g>
<g>
</g>
<g>
</g>
<g>
</g>
<g>
</g>
<g>
</g>
<g>
</g>
</svg>
