<?xml version="1.0" encoding="iso-8859-1"?>
<!-- Generator: Adobe Illustrator 16.0.0, SVG Export Plug-In . SVG Version: 6.00 Build 0)  -->
<!DOCTYPE svg PUBLIC "-//W3C//DTD SVG 1.1//EN" "http://www.w3.org/Graphics/SVG/1.1/DTD/svg11.dtd">
<svg version="1.1" id="Capa_1" xmlns="http://www.w3.org/2000/svg" xmlns:xlink="http://www.w3.org/1999/xlink" x="0px" y="0px"
	 width="493.196px" height="493.196px" viewBox="0 0 493.196 493.196" style="enable-background:new 0 0 493.196 493.196;"
	 xml:space="preserve">
<g>
	<g>
		<path d="M491.435,435.738l-96.896-96.895l8.59-8.588c2.347-2.346,2.347-6.15,0-8.496l-40.458-40.458
			c-2.347-2.345-6.147-2.345-8.496,0l-5.523,5.525l-51.162-42.338c-3.903-3.233-9.632-2.966-13.218,0.623l-39.162,39.159
			c-3.586,3.587-3.856,9.313-0.622,13.221l42.337,51.16l-5.522,5.523c-2.347,2.347-2.347,6.15,0,8.497l40.458,40.457
			c1.174,1.173,2.71,1.759,4.247,1.759s3.073-0.586,4.248-1.759l8.589-8.589l96.896,96.894c1.127,1.126,2.654,1.76,4.248,1.76
			s3.122-0.634,4.249-1.76l47.2-47.199c1.126-1.127,1.759-2.655,1.759-4.249C493.194,438.394,492.561,436.865,491.435,435.738z
			 M291.847,265.34l37.609,31.124l-32.994,32.995l-31.123-37.61L291.847,265.34z"/>
		<path d="M244.433,159.58l-65.544-65.544c-2.56-2.562-6.032-4-9.654-4c-3.621,0-7.094,1.438-9.655,4l-4.925,4.924L57.456,1.76
			c-2.348-2.345-6.151-2.345-8.498,0L1.759,48.959c-2.345,2.347-2.345,6.15,0,8.499l97.199,97.199l-4.923,4.924
			c-2.561,2.561-4,6.035-4,9.654c0,3.621,1.439,7.095,4,9.656l65.545,65.544c2.562,2.562,6.034,4,9.655,4
			c3.622,0,7.095-1.438,9.654-4l65.544-65.544C249.765,173.559,249.765,164.913,244.433,159.58z M169.235,215.471l-46.236-46.235
			l46.236-46.234l46.234,46.234L169.235,215.471z"/>
	</g>
</g>
<g>
</g>
<g>
</g>
<g>
</g>
<g>
</g>
<g>
</g>
<g>
</g>
<g>
</g>
<g>
</g>
<g>
</g>
<g>
</g>
<g>
</g>
<g>
</g>
<g>
</g>
<g>
</g>
<g>
</g>
</svg>
