<?xml version="1.0" encoding="iso-8859-1"?>
<!-- Generator: Adobe Illustrator 16.0.0, SVG Export Plug-In . SVG Version: 6.00 Build 0)  -->
<!DOCTYPE svg PUBLIC "-//W3C//DTD SVG 1.1//EN" "http://www.w3.org/Graphics/SVG/1.1/DTD/svg11.dtd">
<svg version="1.1" id="Capa_1" xmlns="http://www.w3.org/2000/svg" xmlns:xlink="http://www.w3.org/1999/xlink" x="0px" y="0px"
	 width="192.737px" height="192.737px" viewBox="0 0 192.737 192.737" style="enable-background:new 0 0 192.737 192.737;"
	 xml:space="preserve">
<g>
	<g>
		<path d="M104.835,90.396c-3.091,0-5.59,2.498-5.59,5.584c0,3.074,2.499,6.659,5.59,6.659c3.081,0,5.584-3.585,5.584-6.659
			C110.419,92.894,107.917,90.396,104.835,90.396z"/>
		<path d="M115.766,106.53c-0.041-0.164-0.074-0.323-0.15-0.47c-0.065-0.121-0.147-0.198-0.219-0.302
			c-0.099-0.126-0.191-0.263-0.317-0.366c-0.099-0.077-0.219-0.13-0.328-0.203c-0.12-0.071-0.208-0.159-0.334-0.207
			c-0.202-0.072-4.646-1.665-8.733-1.861l-0.563,1.11h-0.011l1.482,11.59l-1.757,3.076l-1.765-3.076l1.48-11.59h-0.016l-0.554-1.11
			c-4.084,0.196-8.526,1.789-8.735,1.861c-0.123,0.048-0.225,0.136-0.333,0.207c-0.117,0.077-0.23,0.126-0.326,0.203
			c-0.129,0.109-0.229,0.24-0.331,0.371c-0.068,0.099-0.15,0.182-0.208,0.297c-0.078,0.142-0.111,0.306-0.15,0.47
			c-0.027,0.104-0.084,0.186-0.096,0.289l-1.765,15.902c-0.133,1.209,0.74,2.306,1.952,2.446c0.082,0.011,0.161,0.011,0.245,0.011
			c1.108,0,2.066-0.826,2.189-1.968l1.608-14.486c0.191-0.049,0.399-0.114,0.618-0.18v15.068l-1.763,21.855
			c-0.116,1.467,0.973,2.747,2.434,2.867c0.073,0,0.139,0,0.219,0c1.364,0,2.527-1.05,2.634-2.446l1.593-19.736
			c0.322,0.142,0.687,0.219,1.069,0.219c0.373,0,0.739-0.077,1.064-0.219l1.596,19.736c0.104,1.396,1.266,2.446,2.634,2.446
			c0.065,0,0.141,0,0.211,0c1.462-0.12,2.545-1.4,2.437-2.867l-1.764-21.855v-15.068c0.225,0.075,0.428,0.131,0.615,0.18
			l1.602,14.486c0.126,1.136,1.084,1.968,2.2,1.968c0.082,0,0.164,0,0.242-0.011c1.209-0.137,2.083-1.237,1.952-2.446l-1.761-15.902
			C115.859,106.715,115.793,106.627,115.766,106.53z"/>
		<path d="M130.012,103.078c3.081,0,5.582-3.573,5.582-6.654c0-3.092-2.501-5.583-5.582-5.583c-3.086,0-5.59,2.491-5.59,5.583
			C124.422,99.504,126.926,103.078,130.012,103.078z"/>
		<path d="M138.762,108.79c-0.033-0.114-0.104-0.217-0.159-0.333c-0.048-0.099-0.098-0.202-0.169-0.285
			c-0.009-0.022-0.022-0.043-0.027-0.065c-0.146-0.164-3.699-4.137-8.395-4.137c-4.698,0-8.246,3.973-8.399,4.137
			c-0.011,0.022-0.016,0.043-0.033,0.055c-0.075,0.094-0.113,0.208-0.163,0.312c-0.066,0.104-0.126,0.203-0.164,0.317
			c-0.006,0.017-0.015,0.039-0.022,0.06l-3.527,14.141c-0.237,0.94,0.332,1.903,1.28,2.135c0.141,0.032,0.285,0.054,0.431,0.054
			c0.788,0,1.511-0.542,1.707-1.336l3.4-13.603l0.896,8.302l-5.795,11.332c0,0.41,2.358,1.368,5.795,1.893l-1.144,14.194
			c-0.099,1.216,0.812,2.271,2.026,2.375c0.061,0,0.118,0,0.179,0c1.144,0,2.108-0.864,2.207-2.019l1.144-14.2
			c0.058,0,0.118,0,0.184,0c0.061,0,0.126,0,0.187,0l1.144,14.2c0.093,1.154,1.063,2.019,2.194,2.019c0.065,0,0.121,0,0.187,0
			c1.209-0.104,2.119-1.159,2.019-2.375l-1.144-14.194c3.431-0.524,5.797-1.482,5.797-1.893l-5.797-11.327l0.899-8.307l3.391,13.603
			c0.204,0.794,0.919,1.336,1.718,1.336c0.14,0,0.285-0.021,0.434-0.058c0.948-0.232,1.522-1.195,1.279-2.137l-3.534-14.145
			C138.79,108.829,138.77,108.806,138.762,108.79z"/>
		<path d="M155.192,102.634c3.078,0,5.584-3.58,5.584-6.654c0-3.092-2.506-5.59-5.584-5.59c-3.083,0-5.595,2.498-5.595,5.59
			C149.597,99.054,152.105,102.634,155.192,102.634z"/>
		<path d="M166.123,106.53c-0.038-0.164-0.071-0.323-0.153-0.47c-0.061-0.121-0.137-0.198-0.211-0.302
			c-0.102-0.126-0.187-0.263-0.318-0.366c-0.101-0.077-0.22-0.13-0.33-0.203c-0.118-0.071-0.207-0.159-0.337-0.207
			c-0.205-0.072-4.642-1.665-8.73-1.861l-0.574,1.11h-0.011l1.494,11.59l-1.768,3.076l-1.757-3.076l1.483-11.59h-0.017l-0.558-1.11
			c-4.089,0.196-8.529,1.789-8.739,1.861c-0.126,0.048-0.225,0.136-0.332,0.207c-0.116,0.077-0.225,0.126-0.322,0.203
			c-0.134,0.109-0.232,0.24-0.331,0.371c-0.07,0.099-0.153,0.182-0.206,0.297c-0.078,0.142-0.116,0.306-0.158,0.47
			c-0.023,0.104-0.084,0.186-0.095,0.289l-1.773,15.902c-0.126,1.209,0.752,2.306,1.961,2.446c0.085,0.011,0.159,0.011,0.244,0.011
			c1.111,0,2.068-0.826,2.189-1.968l1.61-14.486c0.191-0.049,0.392-0.114,0.616-0.18v15.068l-1.76,21.855
			c-0.117,1.467,0.961,2.747,2.428,2.867c0.07,0,0.136,0,0.214,0c1.364,0,2.527-1.05,2.639-2.446l1.593-19.736
			c0.326,0.142,0.694,0.219,1.064,0.219c0.383,0,0.738-0.077,1.073-0.219l1.592,19.736c0.104,1.396,1.27,2.446,2.638,2.446
			c0.065,0,0.137,0,0.216,0c1.453-0.12,2.55-1.4,2.428-2.867l-1.751-21.855v-15.068c0.219,0.075,0.426,0.131,0.606,0.18
			l1.611,14.486c0.131,1.136,1.083,1.968,2.199,1.968c0.075,0,0.151,0,0.239-0.011c1.214-0.137,2.086-1.237,1.947-2.446
			l-1.767-15.902C166.207,106.715,166.15,106.627,166.123,106.53z"/>
		<path d="M180.368,103.078c3.081,0,5.585-3.573,5.585-6.654c0-3.092-2.504-5.583-5.585-5.583c-3.086,0-5.594,2.491-5.594,5.583
			C174.779,99.504,177.282,103.078,180.368,103.078z"/>
		<path d="M189.151,108.849c0-0.021-0.024-0.043-0.029-0.06c-0.033-0.114-0.103-0.217-0.158-0.333
			c-0.05-0.099-0.098-0.202-0.163-0.285c-0.019-0.022-0.023-0.043-0.033-0.065c-0.149-0.164-3.693-4.137-8.396-4.137
			c-4.7,0-8.24,3.973-8.395,4.137c-0.014,0.022-0.014,0.043-0.032,0.055c-0.065,0.094-0.121,0.208-0.173,0.312
			c-0.057,0.104-0.117,0.203-0.15,0.317c-0.004,0.017-0.021,0.039-0.032,0.06l-3.529,14.141c-0.241,0.94,0.345,1.903,1.285,2.135
			c0.143,0.032,0.284,0.054,0.433,0.054c0.79,0,1.51-0.542,1.709-1.336l3.404-13.603l0.884,8.302l-5.79,11.332
			c0,0.41,2.365,1.368,5.79,1.893l-1.136,14.194c-0.099,1.216,0.808,2.271,2.017,2.375c0.061,0,0.121,0,0.183,0
			c1.139,0,2.1-0.864,2.198-2.019l1.144-14.2c0.065,0,0.122,0,0.191,0c0.061,0,0.132,0,0.188,0l1.145,14.2
			c0.098,1.154,1.06,2.019,2.199,2.019c0.061,0,0.12,0,0.187,0c1.214-0.104,2.115-1.159,2.017-2.375l-1.139-14.194
			c3.427-0.524,5.79-1.482,5.79-1.893l-5.79-11.327l0.893-8.307l3.398,13.603c0.196,0.794,0.919,1.336,1.713,1.336
			c0.137,0,0.29-0.021,0.426-0.058c0.947-0.232,1.521-1.195,1.288-2.137L189.151,108.849z"/>
		<path d="M54.311,62.086c8.421,0,15.256-9.77,15.256-18.2c0-8.427-6.834-15.256-15.256-15.256c-8.426,0-15.263,6.829-15.263,15.256
			C39.047,52.316,45.885,62.086,54.311,62.086z"/>
		<path d="M98.984,85.572l8.396-11.035v2.988c0,0.654,0.542,1.204,1.209,1.204c0.663,0,1.204-0.55,1.204-1.204v-6.165l2.424-3.185
			c2.021-2.648,1.513-6.432-1.148-8.459c-0.394-0.296-0.841-0.427-1.28-0.611v-19.74c8.723-0.635,15.651-7.858,15.651-16.733
			c0-9.299-7.569-16.865-16.86-16.865c-9.297,0-16.862,7.565-16.862,16.865c0,8.875,6.927,16.099,15.652,16.733v19.219
			c-1.806,0.01-3.59,0.746-4.766,2.286L92.38,74.308l-11.276-5.535c-0.112-0.058-0.224-0.058-0.335-0.1
			c-0.099-0.037-0.173-0.119-0.273-0.166c-0.546-0.194-12.765-4.583-23.955-5.133l-1.44,2.882h-0.028l4.069,31.649l-4.83,8.427
			l-4.831-8.427l4.067-31.649H53.51l-1.434-2.882c-11.191,0.55-23.406,4.939-23.958,5.133c-0.263,0.103-0.446,0.299-0.695,0.427
			c-0.402,0.208-0.812,0.391-1.166,0.7c-0.323,0.288-0.553,0.632-0.803,0.963c-0.187,0.252-0.434,0.417-0.583,0.69l-7.688,14.11
			l-9.595-2.562c-3.215-0.852-6.525,1.053-7.384,4.271c-0.856,3.215,1.053,6.534,4.27,7.396l14.181,3.786
			c0.523,0.134,1.043,0.198,1.56,0.198c2.167,0,4.219-1.172,5.3-3.144l8.826-16.189c0.829-0.273,1.882-0.585,3.082-0.916v41.195
			l-4.807,59.723c-0.32,3.982,2.65,7.473,6.64,7.79c0.193,0.022,0.396,0.022,0.587,0.022c3.738,0,6.908-2.867,7.212-6.664
			l4.337-53.966c0.899,0.394,1.882,0.623,2.925,0.623c1.042,0,2.027-0.229,2.924-0.623l4.342,53.966
			c0.304,3.802,3.475,6.664,7.212,6.664c0.196,0,0.392,0,0.588-0.022c3.985-0.317,6.959-3.808,6.642-7.79l-4.816-59.723V78.238
			c2.444,0.688,4.239,1.282,4.892,1.512l15.421,7.592c0.848,0.402,1.761,0.61,2.662,0.61C96.015,87.958,97.815,87.118,98.984,85.572
			z M94.138,22.633c0-7.968,6.482-14.444,14.446-14.444c7.962,0,14.441,6.476,14.441,14.444c0,7.956-6.479,14.446-14.441,14.446
			C100.621,37.079,94.138,30.589,94.138,22.633z"/>
	</g>
</g>
<g>
</g>
<g>
</g>
<g>
</g>
<g>
</g>
<g>
</g>
<g>
</g>
<g>
</g>
<g>
</g>
<g>
</g>
<g>
</g>
<g>
</g>
<g>
</g>
<g>
</g>
<g>
</g>
<g>
</g>
</svg>
