<?xml version="1.0" encoding="iso-8859-1"?>
<!-- Generator: Adobe Illustrator 16.0.0, SVG Export Plug-In . SVG Version: 6.00 Build 0)  -->
<!DOCTYPE svg PUBLIC "-//W3C//DTD SVG 1.1//EN" "http://www.w3.org/Graphics/SVG/1.1/DTD/svg11.dtd">
<svg version="1.1" id="Capa_1" xmlns="http://www.w3.org/2000/svg" xmlns:xlink="http://www.w3.org/1999/xlink" x="0px" y="0px"
	 width="45.548px" height="45.547px" viewBox="0 0 45.548 45.547" style="enable-background:new 0 0 45.548 45.547;"
	 xml:space="preserve">
<g>
	<g>
		<path d="M0.364,41.487L20.822,8.418l-3.579-5.536c-0.479-0.741-0.267-1.729,0.474-2.208c0.741-0.479,1.731-0.268,2.211,0.475
			l2.844,4.403l2.848-4.404c0.479-0.741,1.469-0.953,2.209-0.474c0.741,0.479,0.953,1.468,0.476,2.209l-3.578,5.536l20.457,33.069
			c0.461,0.735,0.486,1.656,0.065,2.415c-0.42,0.76-1.22,1.225-2.087,1.225h-9.055c-0.817,0-1.579-0.417-2.021-1.104l-7.693-12.007
			c-0.354-0.552-0.964-0.885-1.619-0.885c-0.654,0-1.265,0.333-1.619,0.886l-7.689,12.006c-0.44,0.689-1.202,1.106-2.021,1.106
			H2.387c-0.868,0-1.668-0.465-2.088-1.226S-0.097,42.222,0.364,41.487z"/>
	</g>
</g>
<g>
</g>
<g>
</g>
<g>
</g>
<g>
</g>
<g>
</g>
<g>
</g>
<g>
</g>
<g>
</g>
<g>
</g>
<g>
</g>
<g>
</g>
<g>
</g>
<g>
</g>
<g>
</g>
<g>
</g>
</svg>
