<?xml version="1.0" encoding="iso-8859-1"?>
<!-- Generator: Adobe Illustrator 16.0.0, SVG Export Plug-In . SVG Version: 6.00 Build 0)  -->
<!DOCTYPE svg PUBLIC "-//W3C//DTD SVG 1.1//EN" "http://www.w3.org/Graphics/SVG/1.1/DTD/svg11.dtd">
<svg version="1.1" id="Capa_1" xmlns="http://www.w3.org/2000/svg" xmlns:xlink="http://www.w3.org/1999/xlink" x="0px" y="0px"
	 width="463.27px" height="463.27px" viewBox="0 0 463.27 463.27" style="enable-background:new 0 0 463.27 463.27;"
	 xml:space="preserve">
<g>
	<g>
		<path d="M175.516,208.489h112.236c2.146,0,4.176-0.985,5.503-2.672s1.807-3.891,1.301-5.977l-7.589-31.299
			c-0.76-3.14-3.571-5.351-6.803-5.351h-97.059c-3.23,0-6.042,2.211-6.803,5.351l-7.589,31.299c-0.506,2.086-0.026,4.29,1.301,5.977
			S173.37,208.489,175.516,208.489z"/>
		<path d="M193.485,134.363h76.3c2.146,0,4.175-0.985,5.5-2.672c1.328-1.687,1.809-3.89,1.303-5.977l-7.586-31.299
			c-0.762-3.14-3.572-5.351-6.803-5.351h-61.126c-3.23,0-6.042,2.211-6.803,5.351l-7.587,31.299
			c-0.506,2.086-0.026,4.289,1.301,5.977C189.311,133.379,191.339,134.363,193.485,134.363z"/>
		<path d="M211.453,60.237h40.362c2.146,0,4.176-0.985,5.502-2.672c1.327-1.687,1.808-3.89,1.303-5.977l-7.209-29.744
			c-0.762-3.14-3.573-5.351-6.805-5.351h-25.942c-3.23,0-6.042,2.211-6.803,5.351l-7.211,29.744
			c-0.506,2.086-0.026,4.29,1.301,5.977C207.278,59.252,209.307,60.237,211.453,60.237z"/>
		<path d="M365.887,405.595H344.43l-39.492-162.926c-0.761-3.141-3.571-5.352-6.803-5.352h-133c-3.23,0-6.042,2.211-6.803,5.352
			L118.84,405.595H97.383c-3.867,0-7,3.135-7,7v27.182c0,3.865,3.133,7,7,7h268.504c3.865,0,7-3.135,7-7v-27.182
			C372.887,408.729,369.752,405.595,365.887,405.595z"/>
		<path d="M70.607,220.467h66.917c3.23,0,6.041-2.211,6.803-5.351l5.495-22.667c0.506-2.086,0.026-4.29-1.301-5.977
			c-1.327-1.687-3.355-2.672-5.502-2.672H76.102c-3.23,0-6.042,2.211-6.803,5.351l-5.495,22.667
			c-0.506,2.086-0.026,4.29,1.301,5.977C66.432,219.482,68.46,220.467,70.607,220.467z"/>
		<path d="M85.149,160.467h58.367c2.147,0,4.176-0.985,5.503-2.672c1.327-1.687,1.807-3.89,1.3-5.977l-5.492-22.667
			c-0.762-3.14-3.572-5.351-6.803-5.351H90.645c-3.23,0-6.043,2.211-6.803,5.351l-5.495,22.667c-0.506,2.086-0.026,4.29,1.301,5.977
			C80.975,159.482,83.003,160.467,85.149,160.467z"/>
		<path d="M99.695,100.467h29.279c2.146,0,4.175-0.985,5.502-2.672c1.327-1.688,1.807-3.891,1.301-5.977l-5.19-21.408
			c-0.761-3.14-3.572-5.351-6.803-5.351h-18.9c-3.23,0-6.042,2.211-6.803,5.351l-5.188,21.408c-0.507,2.086-0.026,4.29,1.301,5.977
			C95.52,99.483,97.547,100.467,99.695,100.467z"/>
		<path d="M104.406,379.812l30.871-127.361c0.506-2.086,0.026-4.289-1.301-5.977c-1.327-1.688-3.355-2.672-5.502-2.672H61.557
			c-3.23,0-6.042,2.211-6.803,5.351L23.033,380.011H7c-3.866,0-7,3.133-7,7v19.332c0,3.867,3.134,7,7,7h56.383c3.866,0,7-3.133,7-7
			v-21.18h27.219C100.833,385.163,103.645,382.952,104.406,379.812z"/>
		<path d="M314.748,186.473c-1.327,1.688-1.808,3.891-1.301,5.977l5.494,22.667c0.762,3.14,3.572,5.351,6.804,5.351h66.918
			c2.146,0,4.175-0.985,5.502-2.672s1.807-3.891,1.301-5.977l-5.495-22.667c-0.761-3.14-3.572-5.351-6.803-5.351H320.25
			C318.104,183.801,316.075,184.786,314.748,186.473z"/>
		<path d="M319.752,160.467h58.368c2.146,0,4.175-0.985,5.502-2.672s1.807-3.891,1.301-5.977l-5.495-22.667
			c-0.762-3.14-3.572-5.351-6.803-5.351h-47.379c-3.23,0-6.042,2.211-6.804,5.351l-5.492,22.667c-0.507,2.086-0.026,4.29,1.3,5.977
			C315.578,159.483,317.606,160.467,319.752,160.467z"/>
		<path d="M334.296,100.467h29.279c2.146,0,4.175-0.985,5.502-2.672c1.326-1.687,1.806-3.89,1.301-5.977l-5.188-21.408
			c-0.761-3.14-3.571-5.351-6.803-5.351h-18.9c-3.229,0-6.042,2.211-6.803,5.351l-5.189,21.408c-0.507,2.086-0.026,4.29,1.301,5.977
			C330.121,99.482,332.148,100.467,334.296,100.467z"/>
		<path d="M456.27,380.011h-16.033l-31.721-130.858c-0.761-3.14-3.572-5.351-6.803-5.351h-66.917c-2.147,0-4.175,0.984-5.502,2.672
			c-1.327,1.687-1.808,3.89-1.301,5.977l30.87,127.361c0.762,3.141,3.572,5.352,6.803,5.352h27.221v21.18c0,3.867,3.134,7,7,7
			h56.383c3.865,0,7-3.133,7-7v-19.332C463.27,383.144,460.135,380.011,456.27,380.011z"/>
	</g>
</g>
<g>
</g>
<g>
</g>
<g>
</g>
<g>
</g>
<g>
</g>
<g>
</g>
<g>
</g>
<g>
</g>
<g>
</g>
<g>
</g>
<g>
</g>
<g>
</g>
<g>
</g>
<g>
</g>
<g>
</g>
</svg>
