<?xml version="1.0" encoding="iso-8859-1"?>
<!-- Generator: Adobe Illustrator 18.1.1, SVG Export Plug-In . SVG Version: 6.00 Build 0)  -->
<svg version="1.1" id="Capa_1" xmlns="http://www.w3.org/2000/svg" xmlns:xlink="http://www.w3.org/1999/xlink" x="0px" y="0px"
	 viewBox="0 0 21.407 21.407" style="enable-background:new 0 0 21.407 21.407;" xml:space="preserve">
<g>
	<g>
		<path style="fill:#010002;" d="M15.649,10.778c-0.083-1.13-0.543-2.143-1.243-2.929c-1.118-1.26-1.579-2.568-1.579-4.945
			c-0.677,0.771-0.938,1.495-1.163,2.229c0.031,1.098,0.116,2.197,0.345,3.271c0.149,0.696,0.327,1.386,0.572,2.053
			c0.247,0.676,0.631,1.347,0.759,2.061c0.24,1.343-0.36,2.374-1.091,3.366c0.204-0.067,0.393-0.149,0.558-0.249
			C14.012,14.913,15.809,12.893,15.649,10.778z"/>
		<path style="fill:#010002;" d="M11.694,16.019c0.305-0.392,0.603-0.788,0.857-1.213c0.767-1.288,0.41-2.332-0.101-3.645
			c-0.811-2.086-1.101-4.217-1.163-6.421C10.935,3.013,10.261,1.413,9.33,0c0.064,0.331,0.108,1.074,0.136,1.416
			c0.161,2.172-0.265,3.72-1.663,5.619c0.603,1.927,1.624,3.528,2.076,5.519c0.269,1.185,0.327,2.354,0.243,3.519
			C10.646,16.128,11.194,16.11,11.694,16.019z"/>
		<path style="fill:#010002;" d="M9.368,12.071c-0.5-1.666-2.238-5.45-2.782-7.083c0,1.3-0.131,2.388-0.257,2.911
			c-0.301,1.255-0.581,2.558-0.581,3.619c0,1.844,1.74,3.485,2.819,4.104c0.327,0.188,0.745,0.321,1.198,0.4
			C9.858,14.704,9.764,13.386,9.368,12.071z"/>
		<polygon style="fill:#010002;" points="17.31,21.407 17.129,21.354 3.664,17.5 3.482,17.449 3.534,17.267 4.045,15.483 
			4.096,15.302 4.277,15.354 17.744,19.207 17.924,19.26 17.872,19.44 17.362,21.226 		"/>
		<polygon style="fill:#010002;" points="17.181,15.534 11.387,17.193 14.761,18.158 17.691,17.318 		"/>
		<polygon style="fill:#010002;" points="3.715,19.389 4.226,21.173 10.021,19.515 6.646,18.55 		"/>
	</g>
</g>
<g>
</g>
<g>
</g>
<g>
</g>
<g>
</g>
<g>
</g>
<g>
</g>
<g>
</g>
<g>
</g>
<g>
</g>
<g>
</g>
<g>
</g>
<g>
</g>
<g>
</g>
<g>
</g>
<g>
</g>
</svg>
