<?xml version="1.0" encoding="iso-8859-1"?>
<!-- Generator: Adobe Illustrator 16.0.0, SVG Export Plug-In . SVG Version: 6.00 Build 0)  -->
<!DOCTYPE svg PUBLIC "-//W3C//DTD SVG 1.1//EN" "http://www.w3.org/Graphics/SVG/1.1/DTD/svg11.dtd">
<svg version="1.1" id="Capa_1" xmlns="http://www.w3.org/2000/svg" xmlns:xlink="http://www.w3.org/1999/xlink" x="0px" y="0px"
	 width="186.712px" height="186.713px" viewBox="0 0 186.712 186.713" style="enable-background:new 0 0 186.712 186.713;"
	 xml:space="preserve">
<g>
	<path d="M171.52,143.698h-42.222c15.479-6.893,30.762-27.157,37.356-46.313c8.471-24.5,1.114-43.611-20.186-52.434
		c-13.061-5.41-25.148-3.921-34.258,3.979V11.089c0-1.72-1.4-3.117-3.117-3.117s-3.117,1.397-3.117,3.117v11.883
		c-1.724-2.6-3.995-5.13-7.063-6.871c-3.03-1.708-6.653-2.582-10.769-2.582c-5.526,0-10.056,1.599-10.263,1.665
		c-1.452,0.518-2.314,2.04-2,3.562c0.104,0.505,2.637,12.419,11.658,17.534c3.032,1.702,6.649,2.573,10.769,2.573
		c3.066,0,5.788-0.484,7.663-0.935v11c-9.097-7.889-21.193-9.371-34.248-3.974c-1.528,0.637-2.969,1.337-4.348,2.077
		c-0.219-0.56-0.542-1.078-1.066-1.446l-24.08-16.861c-1.391-0.959-3.282-0.667-4.29,0.7L27.363,43.669L5.134,24.799
		c-1.315-1.103-3.273-0.947-4.396,0.362c-1.114,1.309-0.947,3.279,0.368,4.396l22.542,19.123L2.552,77.102
		c-0.679,0.916-0.816,2.144-0.316,3.179l29.772,63.406h-6.579c-8.366,0-15.171,7.855-15.171,17.524c0,9.67,6.805,17.53,15.171,17.53
		h146.104c8.366,0,15.18-7.86,15.18-17.53C186.701,151.554,179.887,143.698,171.52,143.698z M98.313,32.629
		c-3.022,0-5.617-0.597-7.699-1.769c-4.284-2.433-6.634-7.389-7.77-10.531c1.44-0.292,3.312-0.56,5.325-0.56
		c3.017,0,5.599,0.597,7.681,1.769c4.293,2.433,6.649,7.389,7.77,10.531C102.183,32.361,100.32,32.629,98.313,32.629z M74.109,50.72
		c13.305-5.514,24.667-2.832,32.458,8.043c0.043,0.055,0.122,0.08,0.152,0.138c0.207,0.255,0.444,0.447,0.719,0.624
		c0.122,0.073,0.201,0.161,0.329,0.216c0.401,0.195,0.853,0.32,1.327,0.32s0.913-0.131,1.334-0.32
		c0.121-0.055,0.2-0.143,0.322-0.216c0.274-0.177,0.518-0.375,0.725-0.624c0.043-0.058,0.122-0.083,0.152-0.138
		c7.794-10.869,19.162-13.542,32.455-8.043c18.109,7.502,24.034,23.352,16.685,44.63c-9,26.123-33.119,49.322-46.765,43.647
		c-0.907-0.378-1.852-0.95-2.984-1.845c-0.56-0.433-1.235-0.652-1.924-0.652c-0.682,0-1.364,0.22-1.937,0.658
		c-1.114,0.889-2.058,1.449-2.989,1.839c-13.604,5.638-37.753-17.524-46.765-43.653C50.078,74.072,56.015,58.222,74.109,50.72z
		 M109.593,143.698h-0.98c0.152-0.104,0.329-0.158,0.481-0.268C109.283,143.54,109.435,143.607,109.593,143.698z M8.65,79.327
		l32.48-43.76L62.174,50.3C48.437,60.402,44.503,77.02,51.53,97.385c6.616,19.169,21.888,39.433,37.363,46.313H38.88L8.65,79.327z
		 M171.52,172.5H25.417c-4.92,0-8.936-5.065-8.936-11.289c0-6.235,4.016-11.296,8.936-11.296H171.52
		c4.927,0,8.945,5.061,8.945,11.296C180.465,167.435,176.447,172.5,171.52,172.5z M69.101,161.211c0,3.977-3.227,7.173-7.17,7.173
		c-3.94,0-7.17-3.209-7.17-7.173c0-3.958,3.23-7.161,7.17-7.161C65.874,154.05,69.101,157.253,69.101,161.211z M45.04,161.211
		c0,3.977-3.23,7.173-7.17,7.173c-3.94,0-7.164-3.209-7.164-7.173c0-3.958,3.224-7.161,7.164-7.161
		C41.809,154.05,45.04,157.253,45.04,161.211z M166.63,161.211c0,3.977-3.233,7.173-7.173,7.173s-7.161-3.209-7.161-7.173
		c0-3.958,3.222-7.161,7.161-7.161S166.63,157.253,166.63,161.211z M94.51,161.211c0,3.977-3.23,7.173-7.169,7.173
		c-3.943,0-7.158-3.209-7.158-7.173c0-3.958,3.215-7.161,7.158-7.161C91.28,154.05,94.51,157.253,94.51,161.211z M119.915,161.211
		c0,3.977-3.228,7.173-7.173,7.173c-3.958,0-7.167-3.209-7.167-7.173c0-3.958,3.228-7.161,7.167-7.161
		C116.687,154.038,119.915,157.253,119.915,161.211z M142.195,161.211c0,3.977-3.228,7.173-7.167,7.173
		c-3.97,0-7.173-3.209-7.173-7.173c0-3.958,3.215-7.161,7.173-7.161C138.967,154.038,142.195,157.253,142.195,161.211z"/>
</g>
<g>
</g>
<g>
</g>
<g>
</g>
<g>
</g>
<g>
</g>
<g>
</g>
<g>
</g>
<g>
</g>
<g>
</g>
<g>
</g>
<g>
</g>
<g>
</g>
<g>
</g>
<g>
</g>
<g>
</g>
</svg>
