<?xml version="1.0" encoding="iso-8859-1"?>
<!-- Generator: Adobe Illustrator 18.0.0, SVG Export Plug-In . SVG Version: 6.00 Build 0)  -->
<!DOCTYPE svg PUBLIC "-//W3C//DTD SVG 1.1//EN" "http://www.w3.org/Graphics/SVG/1.1/DTD/svg11.dtd">
<svg version="1.1" id="Capa_1" xmlns="http://www.w3.org/2000/svg" xmlns:xlink="http://www.w3.org/1999/xlink" x="0px" y="0px"
	 viewBox="0 0 56.298 56.298" style="enable-background:new 0 0 56.298 56.298;" xml:space="preserve">
<g>
	<path style="fill:#1D1D1B;" d="M45.384,48.639c-1.033,0.182-1.854,0.753-2.431,1.515c-0.955-1.57-2.864-2.64-4.692-2.48
		c-2.325,0.204-3.956,2.047-4.305,4.187c-1.162-1.583-3.375-1.174-5.334-0.25c1.84-6.253,3.753-12.516,6.276-18.531
		c2.507,0.902,5.379,0.34,7.513-1.862c4.887-5.044,2.941-12.851,6.742-18.426c0.229-0.335,0.197-0.651,0.044-0.901
		c0.014-0.066-0.001-0.128-0.017-0.195c0.091-0.097,0.178-0.195,0.27-0.292c0.361-0.381-0.121-1.089-0.586-0.759
		c-0.213,0.151-0.408,0.321-0.616,0.477c-9.622-3.157-23.67,9.435-17.069,19.032c0.608,0.884,1.342,1.588,2.147,2.126
		c-2.217,5.411-3.936,11.062-5.484,16.413c-0.66-5.677-1.524-11.432-2.861-17.026c0.44-0.339,0.866-0.744,1.268-1.234
		c3.785-4.605,2.315-11.514-0.412-16.229C21.936,7.46,14.788,3.248,7.919,0.078C7.471-0.129,7.073,0.104,6.917,0.439
		c-0.441,0.091-0.762,0.62-0.343,1.035C6.601,1.5,6.627,1.528,6.654,1.554c-0.278,0.374-0.36,0.917,0.009,1.373
		c3.189,3.944,3.241,10.194,4.508,14.925c0.993,3.706,1.951,7.882,4.05,11.164c1.894,2.962,4.99,4.519,7.847,3.644
		c1.663,6.558,2.746,13.327,3.662,20.034c-0.062,0.042-0.128,0.084-0.188,0.126c-1.301-1.95-4.054-2.182-5.385-0.438
		c-0.155-0.303-0.358-0.584-0.512-0.792c-1.039-1.404-2.576-2.692-4.442-2.302c-1.365,0.285-2.467,1.386-2.472,2.739
		c-0.572-0.205-1.143-0.41-1.715-0.615c-0.755-0.271-1.117-0.001-1.591,0.612c-0.781,1.01-1.138,2.567-0.359,3.682
		c0.328,0.47,1.256,0.368,1.196-0.324c-0.089-1.014-0.143-1.944,0.469-2.762c0.752,0.117,1.504,0.235,2.256,0.352
		c0.411,0.402,1.316,0.206,1.237-0.485c-0.134-1.187,1.327-1.644,2.247-1.237c1.046,0.463,1.443,1.466,2.165,2.257
		c0.225,0.246,0.538,0.453,0.854,0.493c-0.001,0.008-0.004,0.016-0.005,0.024c-0.701-0.021-1.408,0.12-1.924,0.379
		c-0.593,0.298-0.181,1.283,0.454,1.076c0.57-0.186,1.18-0.214,1.753-0.02c0.543,0.184,0.958,0.595,1.492,0.804
		c0.417,0.163,0.811-0.316,0.703-0.703c-0.202-0.719-0.766-1.142-1.444-1.36c1.863-2.076,3.151-2.019,3.852,0.212
		c0.167,0.706,0.984,0.773,1.47,0.388c2.227-1.764,4.142-2.789,6.679-0.956c0.214,0.154,0.453,0.128,0.649,0.013
		c0.364,0.236,1.032,0.02,1.003-0.514c-0.101-1.856,1.239-3.811,3.206-3.967c2.14-0.17,3.171,1.7,3.662,3.439
		c-0.8,0.221-1.559,0.618-2.128,1.095c-0.521,0.438,0.176,1.358,0.735,0.952c0.634-0.46,1.33-0.746,2.12-0.78
		c0.711-0.03,1.368,0.218,2.064,0.285c0.522,0.05,0.825-0.714,0.435-1.05c-0.491-0.423-1.085-0.614-1.706-0.662
		c0.028-0.273,0.017-0.542-0.013-0.806c0.365-0.885,1.114-1.585,2.155-1.655c1.411-0.096,2.249,0.916,2.991,1.952
		c0.349,0.487,1.266,0.378,1.228-0.333C49.804,49.669,47.385,48.287,45.384,48.639z M44.313,21.214
		c-0.661,4.063-2.886,12.359-8.671,10.169c0.15-0.337,0.29-0.678,0.444-1.014c2.508-5.471,5.668-10.13,9.409-14.562
		C44.933,17.531,44.617,19.341,44.313,21.214z M36.349,16.341c3.053-2.574,6.426-3.329,10.115-3.807
		c-5.514,4.731-9.412,11.119-12.41,18.013C29.138,27.107,32.72,19.401,36.349,16.341z M19.392,30.338
		c-4.549-1.982-6.064-12.473-7.047-16.697c-0.619-2.66-0.983-5.335-1.848-7.821c5.949,7.365,9.607,15.923,12.071,24.943
		C21.707,30.982,20.661,30.891,19.392,30.338z M10.499,3.365c3.755,2.286,7.539,4.619,10.491,7.881
		c2.058,2.273,3.846,4.928,4.746,7.891c0.531,1.748,0.805,3.558,0.587,5.382c-0.181,1.519-0.697,3.656-1.878,5.024
		C21.874,19.782,17.719,10.621,10.499,3.365z"/>
</g>
<g>
</g>
<g>
</g>
<g>
</g>
<g>
</g>
<g>
</g>
<g>
</g>
<g>
</g>
<g>
</g>
<g>
</g>
<g>
</g>
<g>
</g>
<g>
</g>
<g>
</g>
<g>
</g>
<g>
</g>
</svg>
