<?xml version="1.0" encoding="iso-8859-1"?>
<!-- Generator: Adobe Illustrator 16.0.0, SVG Export Plug-In . SVG Version: 6.00 Build 0)  -->
<!DOCTYPE svg PUBLIC "-//W3C//DTD SVG 1.1//EN" "http://www.w3.org/Graphics/SVG/1.1/DTD/svg11.dtd">
<svg version="1.1" id="Capa_1" xmlns="http://www.w3.org/2000/svg" xmlns:xlink="http://www.w3.org/1999/xlink" x="0px" y="0px"
	 width="535.89px" height="535.889px" viewBox="0 0 535.89 535.889" style="enable-background:new 0 0 535.89 535.889;"
	 xml:space="preserve">
<g>
	<g>
		<path d="M305.863,37.913c-19.832,3.873-32.856,23.055-28.983,42.907c3.873,19.842,23.18,32.847,43.021,28.955
			c19.843-3.863,32.742-23.151,28.859-42.993C344.889,46.94,325.725,34.04,305.863,37.913z"/>
		<path d="M86.07,78.64c-18.781,3.662-31.097,21.821-27.435,40.612c3.672,18.781,21.937,31.078,40.708,27.406
			c18.791-3.663,30.992-21.917,27.32-40.688C122.991,87.179,104.851,74.967,86.07,78.64z"/>
		<path d="M505.203,350.808c-5.804-10.893-15.166-10.873-20.922,0.057l-3.07,5.842L439.959,88.623l-0.211-0.631
			c-1.491-4.284-6.263-6.684-10.662-5.145c-3.959,1.377-5.929,5.527-5.412,9.696l15.902,103.16l-51.981-2.783l-26.651-57.241
			c-4.484-9.639-16.715-17.012-27.319-16.486l-33.688,3.041c-10.615,0.536-19.498,9.562-19.833,20.177l-12.164,285.842
			c0,0.201,0.058,0.393,0.067,0.594c-2.839,0.41-5.565,0.938-7.936,1.674l-0.307,0.096l-46.789-304.012l-0.21-0.593
			c-1.406-4.055-5.919-6.321-10.088-4.868c-3.749,1.301-5.613,5.231-5.125,9.171l15.042,97.624l-49.18-2.611l-25.226-54.171
			c-4.236-9.123-15.807-16.104-25.857-15.597l-31.891,2.878c-10.041,0.507-18.456,9.056-18.762,19.106L50.163,448.058
			c0.029,1.701,0.239,3.328,0.555,4.924c0.277,1.426,0.727,2.764,1.224,4.074l-11.111-4.074
			c-11.58-4.244-25.608,1.168-31.327,12.107l-7.21,13.779c-5.728,10.949-0.354,19.795,11.982,19.795h486.004
			c12.345,0,24.317-9.803,26.727-21.908l8.004-39.971c2.42-12.107-0.325-30.744-6.139-41.627L505.203,350.808z M133.892,438.093
			l-24.002,19.719c-4.705,3.863-11.255,6.502-18.083,7.707c3.949-3.959,6.521-9.17,7.048-14.832l5.938-140.711l62.31,120.037
			C155.972,428.177,142.106,431.353,133.892,438.093z M210.574,441.097c4.619-5.441,6.875-12.785,5.394-20.379
			c-0.354-1.816-0.909-3.471-1.559-5.164l-81.597-160.372l0.65-20.693l6.588,14.898c5.173,9.515,14.621,8.73,14.621,8.73
			l58.121,3.241c1.167-0.009,2.257-0.124,3.366-0.334c0.507-0.096,0.966-0.297,1.444-0.431l26.938,174.764l-10.624,3.299
			C227.5,440.656,218.932,441.431,210.574,441.097z M319.261,437.578l-1.291-0.469c0.688-1.961,1.225-3.979,1.415-6.082
			l6.273-148.688l61.611,118.729l-30.705,28.803C347.575,438.304,330.86,441.755,319.261,437.578z M436.517,384.162l-81.253-159.694
			l0.679-21.87l6.972,15.74c5.46,10.05,15.452,9.228,15.452,9.228l61.411,3.414c1.233-0.009,2.391-0.124,3.557-0.344
			c0.536-0.105,1.023-0.315,1.54-0.459l22.414,145.427c-6.751,5.164-15.252,8.559-22.883,8.559H436.517z"/>
	</g>
</g>
<g>
</g>
<g>
</g>
<g>
</g>
<g>
</g>
<g>
</g>
<g>
</g>
<g>
</g>
<g>
</g>
<g>
</g>
<g>
</g>
<g>
</g>
<g>
</g>
<g>
</g>
<g>
</g>
<g>
</g>
</svg>
