<?xml version="1.0" encoding="iso-8859-1"?>
<!-- Generator: Adobe Illustrator 16.0.0, SVG Export Plug-In . SVG Version: 6.00 Build 0)  -->
<!DOCTYPE svg PUBLIC "-//W3C//DTD SVG 1.1//EN" "http://www.w3.org/Graphics/SVG/1.1/DTD/svg11.dtd">
<svg version="1.1" id="Capa_1" xmlns="http://www.w3.org/2000/svg" xmlns:xlink="http://www.w3.org/1999/xlink" x="0px" y="0px"
	 width="209.321px" height="209.32px" viewBox="0 0 209.321 209.32" style="enable-background:new 0 0 209.321 209.32;"
	 xml:space="preserve">
<g>
	<g>
		<path d="M209.321,98.425H188.52c-3.057-41.439-36.182-74.562-77.624-77.625V0H98.425v20.8
			C56.985,23.863,23.857,56.985,20.8,98.425H0v12.471h20.8c3.057,41.443,36.185,74.562,77.625,77.625v20.8h12.471v-20.8
			c41.442-3.063,74.567-36.182,77.624-77.625h20.801V98.425z M104.661,176.366c-39.537,0-71.706-32.169-71.706-71.706
			s32.169-71.706,71.706-71.706s71.706,32.169,71.706,71.706S144.198,176.366,104.661,176.366z"/>
		<path d="M117.156,107.692c9.157-6.162,15.466-18.316,15.466-29.258c0-15.439-12.52-27.953-27.961-27.953
			c-15.433,0-27.946,12.519-27.946,27.953c0,10.942,6.296,23.096,15.463,29.258c-21.912,5.554-38.13,24.564-38.13,38.654
			c0,16.66,101.238,16.66,101.238,0C155.286,132.263,139.052,113.246,117.156,107.692z M104.661,158.829l-14.173-14.176
			l11.935-28.855h-0.125l-4.64-5.316c2.238,0.804,4.576,1.291,7.003,1.291c2.423,0,4.762-0.487,7.002-1.279l-4.64,5.311h-0.109
			l11.935,28.856L104.661,158.829z"/>
	</g>
</g>
<g>
</g>
<g>
</g>
<g>
</g>
<g>
</g>
<g>
</g>
<g>
</g>
<g>
</g>
<g>
</g>
<g>
</g>
<g>
</g>
<g>
</g>
<g>
</g>
<g>
</g>
<g>
</g>
<g>
</g>
</svg>
