<?xml version="1.0" encoding="iso-8859-1"?>
<!-- Generator: Adobe Illustrator 16.0.0, SVG Export Plug-In . SVG Version: 6.00 Build 0)  -->
<!DOCTYPE svg PUBLIC "-//W3C//DTD SVG 1.1//EN" "http://www.w3.org/Graphics/SVG/1.1/DTD/svg11.dtd">
<svg version="1.1" id="Capa_1" xmlns="http://www.w3.org/2000/svg" xmlns:xlink="http://www.w3.org/1999/xlink" x="0px" y="0px"
	 width="891.262px" height="891.262px" viewBox="0 0 891.262 891.262" style="enable-background:new 0 0 891.262 891.262;"
	 xml:space="preserve">
<g>
	<g>
		<path d="M95.733,774.428c-7.537,0-13.632,6.122-13.632,13.632c0,7.511,6.095,13.633,13.632,13.633s13.632-6.122,13.632-13.633
			C109.365,780.55,103.271,774.428,95.733,774.428z"/>
		<path d="M360.724,397.988c0,7.51,6.095,13.604,13.632,13.604s13.632-6.095,13.632-13.604c0-7.537-6.095-13.633-13.632-13.633
			S360.724,390.451,360.724,397.988z"/>
		<path d="M457.97,467.345c7.496,0,13.591-6.122,13.591-13.632c0-7.537-6.095-13.632-13.591-13.632
			c-7.564,0-13.659,6.095-13.659,13.632C444.311,461.223,450.404,467.345,457.97,467.345z"/>
		<path d="M866.393,23.073C824.436,7.972,777.336,0,730.128,0c-68.239,0-129.08,16.516-175.88,47.779
			c-35.617,23.835-60.758,57.819-85.109,90.743l-10.026,13.468c-32.107,42.664-68.567,91.069-93.273,120.728
			c-15.291,18.447-38.419,43.018-65.166,71.451c-58.854,62.554-139.447,148.208-204.178,240.529
			C34.513,673.155-7.226,776.006,1.508,818.805l2.014,9.904l8.489,6.448c36.651,27.861,64.296,45.411,138.794,53.737l21.469,2.367
			l9.469-17.931l4.952-9.605c13.495-26.175,36.133-69.98,72.757-118.931c17.795-23.699,42.555-49.575,66.526-74.607l14.773-15.481
			c80.976-85.491,182.587-157.541,183.595-158.248l1.47-1.034l1.333-1.225c0.136-0.108,8.408-7.237,36.705-26.828
			c13.659-9.496,18.639-23.427,20.569-34.013C755.704,285.017,859.481,154.44,884.921,55.452l5.986-23.562L866.393,23.073z
			 M815.021,37.657c-44.024,143.991-217.267,289.207-287.521,347.325l-29.494-19.128c84.839-69.655,222.545-183.172,277.752-334.917
			c-1.823-0.217-3.619-0.408-5.442-0.625C785.58,31.971,800.572,34.393,815.021,37.657z M389.945,289.696
			c24.38-29.305,59.316-75.614,94.103-121.87c27.347-36.433,52.188-73.52,88.05-97.463c44.568-29.794,101.627-42.474,158.03-42.474
			c10.53,0,20.896,0.979,31.265,1.877c-54.99,146.849-190.084,257.889-273.044,325.993l-2.585,2.122l-99.109-64.35
			C387.714,292.281,388.939,290.894,389.945,289.696z M545.597,445.088c-31.372,21.74-39.671,29.223-39.671,29.223
			s-103.953,73.302-188.029,162.059c-28.298,29.849-60.785,62.444-83.369,92.593c-43.072,57.466-67.614,108.51-80.104,132.236
			c-65.52-7.319-88.702-21.359-123.148-47.562c-6.259-30.719,29.386-126.305,90.688-213.81
			c81.302-115.911,187.172-220.231,246.107-285.152l184.872,120.074C551.445,438.993,549.188,442.584,545.597,445.088z
			 M566.684,410.423l-26.965-17.495c73.328-60.704,244.802-206.082,288.935-352.114c9.17,2.449,18.176,5.143,26.72,8.218
			C821.333,181.812,643.686,343.653,566.684,410.423z"/>
	</g>
</g>
<g>
</g>
<g>
</g>
<g>
</g>
<g>
</g>
<g>
</g>
<g>
</g>
<g>
</g>
<g>
</g>
<g>
</g>
<g>
</g>
<g>
</g>
<g>
</g>
<g>
</g>
<g>
</g>
<g>
</g>
</svg>
