<?xml version="1.0" encoding="iso-8859-1"?>
<!-- Generator: Adobe Illustrator 16.0.0, SVG Export Plug-In . SVG Version: 6.00 Build 0)  -->
<!DOCTYPE svg PUBLIC "-//W3C//DTD SVG 1.1//EN" "http://www.w3.org/Graphics/SVG/1.1/DTD/svg11.dtd">
<svg version="1.1" id="Capa_1" xmlns="http://www.w3.org/2000/svg" xmlns:xlink="http://www.w3.org/1999/xlink" x="0px" y="0px"
	 width="612.07px" height="612.07px" viewBox="0 0 612.07 612.07" style="enable-background:new 0 0 612.07 612.07;"
	 xml:space="preserve">
<g>
	<g>
		<g>
			<path d="M454.515,228.113c-4.463,2.769-10.38,1.395-13.147-3.068c-2.771-4.462-1.396-10.379,3.066-13.148l152.985-95.688
				c4.463-2.789,10.358-1.395,13.147,3.068c0.978,1.574,1.436,3.307,1.436,5.041h0.021v363.467c0,3.586-1.991,6.713-4.921,8.367
				L435.569,610.486c-2.85,1.893-6.355,2.03-9.265,0.696v0.021L182.573,498.68L14.905,610.465c-4.383,2.93-10.34,1.734-13.249-2.647
				c-1.255-1.894-1.753-4.064-1.574-6.156L0.202,241.6c0-3.486,1.873-6.534,4.682-8.188l-0.02-0.02l133.74-79.013
				c4.522-2.669,10.38-1.175,13.069,3.347c2.669,4.542,1.175,10.399-3.367,13.069L19.249,247.059l-0.119,337.607l157.248-104.852
				l0.02,0.02c2.67-1.793,6.176-2.172,9.284-0.738L429.472,591.6l163.425-108.916V141.549L454.515,228.113z"/>
			<path d="M306.013,0c36.956,0,70.426,15.001,94.651,39.227l0.02,0.02l0.021-0.02c24.226,24.206,39.207,57.716,39.207,94.692
				c0,37.474-20.938,82.001-47.437,123.878c-26.078,41.24-57.337,79.77-79.092,106.326c-3.348,4.084-9.383,4.682-13.448,1.336
				c-0.717-0.598-1.334-1.275-1.833-2.012c-21.855-26.679-52.915-65.048-78.634-105.709
				c-26.477-41.897-47.376-86.404-47.376-123.839c0-36.976,15.002-70.466,39.208-94.691C235.547,15.001,269.038,0,306.013,0
				L306.013,0z M387.216,52.735c-20.778-20.739-49.487-33.589-81.183-33.589c-31.697,0-60.405,12.85-81.165,33.609
				c-20.76,20.759-33.629,49.467-33.629,81.144c0,33.291,19.584,74.411,44.388,113.678c22.592,35.721,49.527,69.829,70.366,95.409
				c20.878-25.642,47.893-59.828,70.386-95.37c24.823-39.227,44.427-80.387,44.427-113.718c0-31.696-12.85-60.405-33.608-81.164
				L387.216,52.735L387.216,52.735z"/>
			<path d="M306.013,76.522c15.838,0,30.222,6.435,40.582,16.814v0.04c10.379,10.38,16.814,24.744,16.814,40.542
				c0,15.799-6.437,30.163-16.814,40.542l-0.04,0.04c-10.38,10.379-24.744,16.814-40.542,16.814
				c-15.838,0-30.223-6.435-40.583-16.814c-10.379-10.36-16.814-24.744-16.814-40.583c0-15.818,6.435-30.163,16.814-40.542v-0.04
				C275.811,82.958,290.174,76.522,306.013,76.522L306.013,76.522z M333.087,106.844l-0.021,0.021
				c-6.913-6.913-16.495-11.196-27.055-11.196c-10.559,0-20.142,4.283-27.055,11.196l-0.02-0.021
				c-6.894,6.933-11.177,16.496-11.177,27.075c0,10.559,4.283,20.142,11.197,27.055c6.913,6.913,16.496,11.196,27.055,11.196
				c10.56,0,20.121-4.264,27.055-11.157l0.039-0.04c6.895-6.914,11.157-16.496,11.157-27.055
				C344.284,123.34,340,113.757,333.087,106.844z"/>
			<path d="M439.852,602.518c0,5.259-4.264,9.521-9.521,9.521c-5.26,0-9.523-4.264-9.523-9.521l0.04-344.282
				c0-5.26,4.265-9.523,9.522-9.523c5.26,0,9.522,4.264,9.522,9.523L439.852,602.518z"/>
			<path d="M191.159,483.6c0,5.261-4.263,9.523-9.523,9.523c-5.259,0-9.523-4.264-9.523-9.523l0.06-225.384
				c0-5.26,4.263-9.523,9.522-9.523c5.26,0,9.523,4.263,9.523,9.523L191.159,483.6z"/>
		</g>
	</g>
</g>
<g>
</g>
<g>
</g>
<g>
</g>
<g>
</g>
<g>
</g>
<g>
</g>
<g>
</g>
<g>
</g>
<g>
</g>
<g>
</g>
<g>
</g>
<g>
</g>
<g>
</g>
<g>
</g>
<g>
</g>
</svg>
