<?xml version="1.0" encoding="iso-8859-1"?>
<!-- Generator: Adobe Illustrator 16.0.0, SVG Export Plug-In . SVG Version: 6.00 Build 0)  -->
<!DOCTYPE svg PUBLIC "-//W3C//DTD SVG 1.1//EN" "http://www.w3.org/Graphics/SVG/1.1/DTD/svg11.dtd">
<svg version="1.1" id="Capa_1" xmlns="http://www.w3.org/2000/svg" xmlns:xlink="http://www.w3.org/1999/xlink" x="0px" y="0px"
	 width="554.653px" height="554.653px" viewBox="0 0 554.653 554.653" style="enable-background:new 0 0 554.653 554.653;"
	 xml:space="preserve">
<g>
	<g>
		<path d="M53.932,369.916L4.848,410.852c-5.718,4.763-6.483,13.254-1.731,18.973c2.678,3.193,6.512,4.848,10.366,4.848
			c3.041,0,6.11-1.032,8.616-3.127l49.094-40.937c3.107-2.611,9.476-2.984,12.89-0.775l50.71,32.896
			c13.11,8.521,32.397,7.822,44.848-1.568l40.937-30.829c3.414-2.592,10.595-2.897,14.219-0.594l52.709,33.287
			c12.804,8.081,32.053,7.966,44.781-0.277l50.7-32.904c3.825-2.467,11.522-2.429,15.31,0.077l49.505,32.637
			c13.024,8.615,32.34,8.108,44.887-1.167l56.504-41.769c5.986-4.428,7.239-12.872,2.821-18.849
			c-4.418-5.995-12.861-7.258-18.848-2.82l-56.505,41.759c-3.385,2.506-10.471,2.716-14.009,0.364l-49.515-32.646
			c-12.737-8.415-32.025-8.511-44.819-0.191l-50.71,32.904c-3.893,2.506-11.81,2.562-15.73,0.096l-52.699-33.277
			c-13.148-8.281-32.417-7.487-44.838,1.855l-40.927,30.829c-3.385,2.562-10.414,2.802-13.971,0.487l-50.7-32.876
			C85.421,358.565,66.134,359.721,53.932,369.916z"/>
		<path d="M179.832,256.274c-41.549,0-75.229,33.689-75.229,75.219c0,5.805,0.717,11.438,1.96,16.878l45.871,29.739
			c0,0,0.593,0.144,1.568,0.144c1.167,0,2.037-0.258,2.267-0.382l40.774-30.715c14.984-11.294,39.11-12.316,55.032-2.276
			l1.568,0.995c0.899-4.657,1.406-9.458,1.406-14.373C255.05,289.963,221.371,256.274,179.832,256.274z"/>
		<path d="M323.202,265.779l-23.868-112.245c-2.658-12.498-13.253-21.726-26-22.644l-149.959-10.834
			c-15.769-1.138-29.539,10.748-30.677,26.545c-1.138,15.807,10.739,29.539,26.545,30.677l128.453,9.275l14.659,68.936
			c-0.946,0.841-6.818,6.072-10.098,8.711c-2.668,2.161-5.346,4.36-7.87,6.655c14.917,15.875,24.136,37.18,24.136,60.636
			c0,7.488-0.995,14.727-2.754,21.688l39.512,24.938c0.479,0.239,5.508,0.239,6.11-0.086l50.644-32.847
			c15.28-9.927,39.464-9.812,54.659,0.229l49.505,32.627c0.152,0,3.49,0.019,3.892-0.211l45.996-34.004
			c-19.775-13.56-123.987-47.812-192.493-69.51C323.833,271.526,323.814,268.677,323.202,265.779z"/>
	</g>
</g>
<g>
</g>
<g>
</g>
<g>
</g>
<g>
</g>
<g>
</g>
<g>
</g>
<g>
</g>
<g>
</g>
<g>
</g>
<g>
</g>
<g>
</g>
<g>
</g>
<g>
</g>
<g>
</g>
<g>
</g>
</svg>
