<?xml version="1.0" encoding="iso-8859-1"?>
<!-- Generator: Adobe Illustrator 18.1.1, SVG Export Plug-In . SVG Version: 6.00 Build 0)  -->
<svg version="1.1" id="Capa_1" xmlns="http://www.w3.org/2000/svg" xmlns:xlink="http://www.w3.org/1999/xlink" x="0px" y="0px"
	 viewBox="0 0 23.303 23.303" style="enable-background:new 0 0 23.303 23.303;" xml:space="preserve">
<g>
	<g>
		<path style="fill:#010002;" d="M18.383,4.53l-0.399,0.439V1.953H0v19.396h17.983V11.161l3.475-3.821L18.383,4.53z M16.572,19.938
			c-1.235,0-13.923,0-15.159,0c0-1.25,0-15.321,0-16.572c1.236,0,13.924,0,15.159,0c0,0.327,0,1.535,0,3.157l-4.877,5.363
			l3.073,2.812l1.804-1.983C16.572,16.164,16.572,19.37,16.572,19.938z"/>
		<path style="fill:#010002;" d="M23.05,4.573l-2.051-1.875C20.72,2.44,20.31,2.422,20.095,2.66l-1.012,1.188l3.073,2.81L23.17,5.47
			C23.387,5.234,23.332,4.828,23.05,4.573z"/>
		<polygon style="fill:#010002;" points="9.855,16.683 10.011,16.829 14.017,15.487 10.94,12.676 		"/>
		<circle style="fill:#010002;" cx="5.51" cy="15.739" r="2.583"/>
		<polygon style="fill:#010002;" points="2.454,10.522 8.79,10.522 5.62,5.808 		"/>
	</g>
</g>
<g>
</g>
<g>
</g>
<g>
</g>
<g>
</g>
<g>
</g>
<g>
</g>
<g>
</g>
<g>
</g>
<g>
</g>
<g>
</g>
<g>
</g>
<g>
</g>
<g>
</g>
<g>
</g>
<g>
</g>
</svg>
