<?xml version="1.0" encoding="iso-8859-1"?>
<!-- Generator: Adobe Illustrator 16.0.0, SVG Export Plug-In . SVG Version: 6.00 Build 0)  -->
<!DOCTYPE svg PUBLIC "-//W3C//DTD SVG 1.1//EN" "http://www.w3.org/Graphics/SVG/1.1/DTD/svg11.dtd">
<svg version="1.1" id="Capa_1" xmlns="http://www.w3.org/2000/svg" xmlns:xlink="http://www.w3.org/1999/xlink" x="0px" y="0px"
	 width="45px" height="45px" viewBox="0 0 45 45" style="enable-background:new 0 0 45 45;" xml:space="preserve">
<g>
	<path d="M17.878,27.856h-0.546v-1.86h0.424c0.433,0,0.615,0.174,0.615,0.735v0.527C18.372,27.71,18.199,27.856,17.878,27.856z
		 M24.497,23.528h-0.458v1.861h0.373c0.355,0,0.57-0.156,0.57-0.642v-0.599C24.982,23.72,24.834,23.528,24.497,23.528z
		 M18.277,24.49v-0.339c0-0.433-0.147-0.623-0.485-0.623h-0.459v1.602h0.373C18.06,25.13,18.277,24.976,18.277,24.49z M36.678,24.75
		v-0.599c0-0.433-0.146-0.623-0.484-0.623h-0.459v1.861h0.373C36.461,25.392,36.678,25.233,36.678,24.75z M32.165,26.801h0.918
		l-0.46-3.063L32.165,26.801z M45,9.871v25.258c0,1.283-1.04,2.323-2.323,2.323H2.323C1.04,37.452,0,36.412,0,35.129V9.871
		c0-1.283,1.04-2.323,2.323-2.323h40.354C43.96,7.548,45,8.588,45,9.871z M34.782,28.726h0.952v-2.469h0.33
		c0.432,0,0.623,0.207,0.623,0.771v0.953c0,0.494,0.035,0.588,0.086,0.744h0.971c-0.096-0.227-0.104-0.441-0.104-0.735v-0.938
		c0-0.633-0.156-1.091-0.635-1.29c0.426-0.197,0.624-0.604,0.624-1.229v-0.476c0-0.937-0.424-1.396-1.412-1.396h-1.437
		L34.782,28.726L34.782,28.726z M27.833,27.271c0,0.97,0.485,1.522,1.42,1.522s1.42-0.556,1.42-1.522v-0.808h-0.901v0.867
		c0,0.435-0.188,0.589-0.494,0.589c-0.301,0-0.491-0.156-0.491-0.589v-3.272c0-0.434,0.19-0.599,0.491-0.599
		c0.306,0,0.494,0.165,0.494,0.599v0.648h0.901v-0.589c0-0.97-0.485-1.523-1.42-1.523s-1.42,0.556-1.42,1.523V27.271z
		 M19.898,28.726h2.597v-0.867H20.85v-1.774h1.308v-0.866H20.85V23.53h1.645v-0.866h-2.597V28.726z M7.811,22.663H6.486l-0.65,4.304
		l-0.702-4.304H3.809v6.062H4.64v-4.287l0.71,4.287h0.901l0.658-4.349v4.349H7.81L7.811,22.663L7.811,22.663z M11.103,22.663H8.505
		v6.062h2.598v-0.867H9.457v-1.774h1.308v-0.866H9.457V23.53h1.646V22.663z M11.195,19.452c0.642,0,1.162-0.52,1.162-1.162v-5.661
		c0-0.641-0.52-1.161-1.162-1.161H4.953c-0.642,0-1.161,0.52-1.161,1.161v5.661c0,0.642,0.52,1.162,1.161,1.162H11.195z
		 M15.685,22.663h-1.324l-0.649,4.304l-0.702-4.304h-1.324v6.062h0.831v-4.287l0.709,4.287h0.901l0.658-4.349v4.349h0.9V22.663z
		 M16.38,28.726h1.499c0.952,0,1.446-0.502,1.446-1.438v-0.494c0-0.642-0.199-1.101-0.709-1.298c0.424-0.2,0.614-0.6,0.614-1.221
		v-0.217c0-0.936-0.425-1.395-1.412-1.395H16.38V28.726z M24.206,31.282h-7.693v1.887h7.693V31.282z M24.99,27.024v0.955
		c0,0.492,0.035,0.588,0.087,0.742h0.97c-0.096-0.225-0.104-0.439-0.104-0.734v-0.937c0-0.633-0.155-1.091-0.633-1.29
		c0.424-0.199,0.625-0.604,0.625-1.229v-0.478c0-0.935-0.427-1.394-1.412-1.394h-1.438v6.062h0.953v-2.468h0.329
		C24.8,26.256,24.99,26.463,24.99,27.024z M32.698,31.282h-7.694v1.887h7.694V31.282z M33.376,28.726h0.961l-0.97-6.062h-1.395
		l-0.97,6.062h0.875l0.165-1.102h1.169L33.376,28.726z M41.189,31.282h-7.692v1.887h7.692V31.282z M41.189,24.161
		c0-0.971-0.465-1.498-1.418-1.498h-1.508v6.062h1.508c0.953,0,1.418-0.528,1.418-1.498V24.161z M39.754,23.528h-0.538v4.328h0.538
		c0.303,0,0.484-0.154,0.484-0.588v-3.151C40.238,23.687,40.057,23.528,39.754,23.528z"/>
</g>
<g>
</g>
<g>
</g>
<g>
</g>
<g>
</g>
<g>
</g>
<g>
</g>
<g>
</g>
<g>
</g>
<g>
</g>
<g>
</g>
<g>
</g>
<g>
</g>
<g>
</g>
<g>
</g>
<g>
</g>
</svg>
