<?xml version="1.0" encoding="iso-8859-1"?>
<!-- Generator: Adobe Illustrator 16.0.0, SVG Export Plug-In . SVG Version: 6.00 Build 0)  -->
<!DOCTYPE svg PUBLIC "-//W3C//DTD SVG 1.1//EN" "http://www.w3.org/Graphics/SVG/1.1/DTD/svg11.dtd">
<svg version="1.1" id="Capa_1" xmlns="http://www.w3.org/2000/svg" xmlns:xlink="http://www.w3.org/1999/xlink" x="0px" y="0px"
	 width="494.033px" height="494.033px" viewBox="0 0 494.033 494.033" style="enable-background:new 0 0 494.033 494.033;"
	 xml:space="preserve">
<g>
	<g>
		<path d="M126.901,449.195c12.966,0,26.123-4.081,26.123-11.906V258.387c26.313,22.097,59.445,34.201,93.984,34.201
			c16.217,0,32.088-2.747,47.292-7.962v197.5c0,0.182,0.012,0.351,0.055,0.537c0.58,7.475,13.419,11.37,26.091,11.37
			c12.686,0,25.521-3.896,26.102-11.37c0.032-0.176,0.046-0.351,0.046-0.537V253.397c29.678-27.623,46.695-66.573,46.695-107.106
			C393.307,65.625,327.687,0,247.025,0c-80.661,0-146.281,65.625-146.281,146.291v291.003c0,0.247,0.033,0.493,0.107,0.723
			C101.612,445.356,114.332,449.195,126.901,449.195z M116.624,93.571l34.594,25.757c-1.936,6.875-3.154,13.998-3.567,21.305
			c-0.138,0.336-0.224,0.706-0.224,1.097v0.578l-39.858-14.35C109.15,115.954,112.209,104.428,116.624,93.571z M134.572,61.861
			l26.761,33.726c-3.378,5.705-6.163,11.762-8.35,18.071L118.898,88.28C123.17,78.885,128.42,70.02,134.572,61.861z M299.752,15.89
			l-25.778,34.614c-6.169-1.737-12.536-2.892-19.121-3.415c-0.012-0.005-0.012-0.021-0.022-0.027
			c-0.938-0.706-2.194-0.711-3.139-0.134c-0.257-0.011-0.509-0.028-0.769-0.038l14.419-40.061
			C277.358,8.405,288.894,11.479,299.752,15.89z M331.451,33.828l-33.801,26.84c-3.217-1.913-6.535-3.667-9.972-5.212
			c-0.219-0.15-0.449-0.252-0.7-0.337c-2.396-1.053-4.848-1.973-7.354-2.841l25.414-34.117
			C314.423,22.44,323.285,27.686,331.451,33.828z M376.545,91.363l-42.713,6.252c-3.848-6.824-8.512-13.117-13.779-18.826
			l38.494-18.121C365.759,70.047,371.844,80.334,376.545,91.363z M386.284,126.471l-42.89-4.93
			c-1.686-6.506-3.983-12.741-6.873-18.665l42.147-6.169C382.246,106.195,384.842,116.151,386.284,126.471z M377.399,198.983
			l-34.495-25.68c2.077-7.423,3.305-15.155,3.609-23.073l39.962,14.389C384.889,176.456,381.841,187.996,377.399,198.983z
			 M359.466,230.71l-26.73-33.691c3.389-5.71,6.2-11.74,8.395-18.044l33.986,25.316C370.892,213.616,365.656,222.475,359.466,230.71
			z M325.118,198.586c-0.578,0.863-1.18,1.722-1.783,2.567c-0.537,0.722-1.05,1.441-1.597,2.153
			c-0.643,0.829-1.288,1.647-1.982,2.454c-0.492,0.6-0.985,1.193-1.5,1.781l-18.331-7.195v-16.709l28.216,10.153
			c-0.505,0.856-1.018,1.71-1.532,2.544C326.1,197.096,325.605,197.843,325.118,198.586z M266.853,285.452l4.913-42.771
			c6.425-1.664,12.663-3.973,18.671-6.898l6.184,42.162c-0.164,0.065-0.317,0.132-0.459,0.197
			C286.636,281.689,276.827,284.029,266.853,285.452z M194.321,276.675l25.762-34.594c7.363,2.08,15.074,3.299,23.037,3.609
			l-14.38,39.949C216.863,284.1,205.321,281.119,194.321,276.675z M162.559,258.782l33.844-26.854
			c5.683,3.368,11.696,6.181,18.023,8.381l-25.355,34.056C179.741,270.13,170.819,264.992,162.559,258.782z M153.041,250.892
			v-21.032l25.097-11.811c4.085,3.928,8.465,7.565,13.19,10.758l-33.182,26.336C156.419,253.741,154.682,252.38,153.041,250.892z
			 M147.438,387.138l-41.09-4.722v-11.174l41.09,4.728V387.138z M106.348,365.606v-11.175l41.09,4.729v11.168L106.348,365.606z
			 M106.348,348.796v-11.174l41.09,4.729v11.168L106.348,348.796z M106.348,331.985v-11.173l41.09,4.729v11.168L106.348,331.985z
			 M106.348,315.176v-11.173l41.09,4.727v11.168L106.348,315.176z M106.348,298.366v-11.174l41.09,4.728v11.168L106.348,298.366z
			 M106.348,281.556v-11.174l41.09,4.729v11.168L106.348,281.556z M147.438,269.469l-41.09-4.723v-11.174l41.09,4.729V269.469z
			 M106.348,247.937v-11.174l41.09,4.725v10.717v0.454L106.348,247.937z M147.438,219.039l-41.09-4.723v-11.173l41.09,4.725V219.039
			z M147.438,224.677v11.171l-41.09-4.721v-11.175L147.438,224.677z M147.438,202.229l-41.09-4.722v-11.175l41.09,4.725V202.229z
			 M106.348,388.052l41.09,4.73v11.165l-41.09-4.722V388.052z M153.041,196.021l7.176-1.053c3.855,6.826,8.512,13.116,13.793,18.826
			l-20.969,9.869V196.021z M153.041,190.357v-11.431c1.284,3.696,2.797,7.289,4.492,10.774L153.041,190.357z M147.438,185.418
			l-41.09-4.722v-14.752l41.09,4.722V185.418z M106.348,404.861l41.09,4.729v11.169l-41.09-4.724V404.861z M247.025,240.286
			c-51.67,0-93.711-41.907-93.973-93.508c0.202-0.386,0.352-0.807,0.352-1.278c0-38.851,31.62-70.46,70.463-70.46
			c38.84,0,70.46,31.609,70.46,70.46c0,0.143,0.061,0.26,0.083,0.395c-0.022,0.134-0.083,0.251-0.083,0.392v81.069
			C279.898,235.799,263.591,240.286,247.025,240.286z M202.702,63.374c0.075-0.036,0.119-0.053,0.187-0.09
			c2.426-1.284,4.914-2.443,7.457-3.524l-4.684,11.967c-4.249,1.056-8.356,2.405-12.285,4.131l0.838-7.277
			C196.942,66.725,199.749,64.947,202.702,63.374z M280.655,58.622l-22.952,18.862c-5.478-2.736-11.288-4.849-17.403-6.203
			l13.868-18.622C263.449,53.36,272.325,55.412,280.655,58.622z M332.123,106.619l-39.99,5.565
			c-3.119-6.383-7.103-12.243-11.796-17.472l32.097-15.784C320.576,86.841,327.235,96.22,332.123,106.619z M335.583,177.845
			c-0.363,1.007-0.733,2.022-1.119,3.018c-0.328,0.812-0.665,1.614-1.016,2.416c-0.406,0.975-0.834,1.946-1.287,2.903
			c-0.365,0.801-0.775,1.583-1.172,2.375c-0.043,0.086-0.104,0.17-0.126,0.257l-30.92-11.127c-0.013,0-0.013,0-0.013,0v-17.382
			l37.007,13.33c-0.158,0.583-0.337,1.171-0.514,1.749C336.161,176.214,335.859,177.024,335.583,177.845z M314.031,212.115
			c-0.743,0.751-1.519,1.479-2.284,2.207c-0.648,0.621-1.303,1.25-1.983,1.855c-0.786,0.706-1.606,1.39-2.43,2.068
			c-0.709,0.58-1.4,1.176-2.134,1.74c-0.831,0.663-1.718,1.297-2.581,1.929c-0.746,0.545-1.479,1.099-2.232,1.626
			c-0.131,0.101-0.309,0.188-0.448,0.29V206.36l14.246,5.598C314.142,212.007,314.076,212.064,314.031,212.115z M341.014,146.291
			c0,2.011-0.065,4.019-0.178,6.008c-0.052,0.671-0.132,1.328-0.188,1.995c-0.121,1.311-0.22,2.626-0.373,3.926
			c-0.107,0.785-0.238,1.554-0.35,2.331c-0.187,1.171-0.355,2.348-0.58,3.507c-0.163,0.819-0.351,1.62-0.536,2.427
			c-0.121,0.577-0.263,1.149-0.383,1.727l-38.479-13.853c-0.009,0-0.009,0-0.009,0v-8.068c0-0.14-0.068-0.257-0.09-0.392
			c0.033-0.134,0.09-0.251,0.09-0.394c0-1.904-0.145-3.77-0.285-5.636l39.594,4.55c0.122,0.011,0.221,0.017,0.341,0.017
			c0.481,0,0.931-0.162,1.322-0.386C340.921,144.8,341.014,145.536,341.014,146.291z M340.658,139.098
			c-0.251-0.107-0.49-0.219-0.766-0.249l-40.914-4.7c-0.87-5.787-2.364-11.363-4.465-16.649l39.912-5.551
			C337.791,120.471,339.926,129.583,340.658,139.098z M311.547,277.584c2.521-1.249,4.969-2.604,7.41-3.984l21.516,2.463
			c0.12,0.011,0.219,0.021,0.33,0.021c0.085,0,0.151-0.032,0.229-0.043v11.251l-40.877-4.695c3.688-1.444,7.312-3.008,10.846-4.739
			C311.178,277.791,311.346,277.683,311.547,277.584z M341.014,455.401l-41.094-4.717v-11.174l40.533,4.651
			c0.117,0.01,0.219,0.021,0.331,0.021c0.094,0,0.154-0.032,0.229-0.044V455.401L341.014,455.401z M341.014,438.591l-41.094-4.716
			v-11.174l40.533,4.65c0.117,0.011,0.219,0.024,0.331,0.024c0.094,0,0.154-0.033,0.229-0.046V438.591L341.014,438.591z
			 M341.014,421.781l-41.094-4.715v-11.174l40.533,4.649c0.117,0.011,0.219,0.021,0.331,0.021c0.094,0,0.154-0.033,0.229-0.043
			V421.781L341.014,421.781z M341.014,404.974l-41.094-4.72V389.08l40.533,4.651c0.117,0.012,0.219,0.022,0.331,0.022
			c0.094,0,0.154-0.033,0.229-0.044V404.974L341.014,404.974z M341.014,388.161l-41.094-4.717v-11.174l40.533,4.651
			c0.117,0.013,0.219,0.022,0.331,0.022c0.094,0,0.154-0.033,0.229-0.045V388.161L341.014,388.161z M341.014,371.352l-41.094-4.717
			v-11.174l40.533,4.651c0.117,0.01,0.219,0.022,0.331,0.022c0.094,0,0.154-0.032,0.229-0.045V371.352L341.014,371.352z
			 M341.014,354.542l-41.094-4.717v-11.173l40.533,4.65c0.117,0.01,0.219,0.021,0.331,0.021c0.094,0,0.154-0.032,0.229-0.043
			V354.542L341.014,354.542z M341.014,337.731l-41.094-4.718v-11.173l40.533,4.65c0.117,0.012,0.219,0.022,0.331,0.022
			c0.094,0,0.154-0.033,0.229-0.043V337.731L341.014,337.731z M341.014,320.921l-41.094-4.717V305.03l40.533,4.651
			c0.117,0.012,0.219,0.022,0.331,0.022c0.094,0,0.154-0.033,0.229-0.043V320.921L341.014,320.921z M341.014,304.111l-41.094-4.717
			v-11.174l40.533,4.651c0.117,0.011,0.219,0.022,0.331,0.022c0.094,0,0.154-0.033,0.229-0.045V304.111L341.014,304.111z
			 M299.92,456.32l40.533,4.664c0.112,0.009,0.219,0.009,0.331,0.009c0.084,0,0.154-0.032,0.229-0.043v11.263l-41.094-4.729V456.32
			L299.92,456.32z M341.014,258.387v12.105l-14.314-1.643c2.239-1.477,4.477-2.949,6.661-4.558c1.33-0.985,2.647-2.02,3.945-3.064
			C338.535,260.286,339.827,259.395,341.014,258.387z M301.928,275.674l-6.228-42.655c0.966-0.542,1.95-1.046,2.902-1.625
			c5.776-3.519,11.118-7.551,15.987-12.002l18.09,38.46C323.225,265.107,312.905,271.017,301.928,275.674z M346.526,144.286
			c-0.12-5.778-0.7-11.442-1.759-16.944l42.246,4.851c0.458,4.64,0.7,9.341,0.7,14.099c0,4.224-0.229,8.427-0.598,12.607
			L346.526,144.286z M276.233,90.477c-4.029-3.827-8.473-7.201-13.245-10.085l23.476-19.305c7.816,3.625,15.048,8.255,21.506,13.784
			L276.233,90.477z M247.025,52.295c0.128,0,0.268,0.022,0.411,0.022l-13.333,17.89c-3.361-0.451-6.765-0.771-10.236-0.771
			c-3.978,0-7.858,0.397-11.671,0.99l5.208-13.324C226.932,53.943,236.877,52.295,247.025,52.295z M214.346,52.178
			c-3.709,1.289-7.267,2.845-10.741,4.534l-6.166-42.063c9.483-3.582,19.451-6.164,29.771-7.628l-4.913,42.764
			C219.613,50.468,216.982,51.27,214.346,52.178z M198.343,59.434c-2.839,1.592-5.575,3.33-8.218,5.179
			c-0.138,0.082-0.283,0.162-0.39,0.267c-3.619,2.545-7.041,5.306-10.26,8.288l-18.067-38.405
			c9.373-7.218,19.666-13.297,30.699-17.992L198.343,59.434z M188.062,73.163l-0.646,5.609c-5.865,3.214-11.228,7.223-16.018,11.812
			C176.155,84.105,181.758,78.255,188.062,73.163z M147.438,148.259v16.766l-41.09-4.725v-14.013c0-4.252,0.226-8.455,0.583-12.613
			L147.438,148.259z M126.901,443.593c-12.726,0-20.515-4.082-20.515-6.304c0-0.197-0.021-0.383-0.06-0.58V421.65l41.09,4.728
			v10.896C147.438,439.511,139.638,443.593,126.901,443.593z M234.413,286.393l14.601-40.569c5.713-0.117,11.377-0.717,16.943-1.812
			l-4.843,42.211c-4.664,0.466-9.378,0.761-14.111,0.761C242.796,286.979,238.587,286.771,234.413,286.393z M340.994,482.116
			c0,2.223-7.797,6.304-20.511,6.304c-12.723,0-20.513-4.081-20.513-6.304c0-0.13-0.019-0.274-0.04-0.411v-8.563l40.531,4.651
			c0.121,0.011,0.219,0.023,0.336,0.023c0.09,0,0.15-0.033,0.229-0.046v3.926C340.994,481.842,340.994,481.986,340.994,482.116z
			 M341.929,250.146c-1.532,1.412-3.218,2.67-4.805,4.005l-18.299-38.872c3.983-4.112,7.564-8.556,10.726-13.245l26.386,33.237
			C351.646,240.521,346.995,245.51,341.929,250.146z M354.965,56.167l-39.039,18.367c-4.086-3.927-8.47-7.562-13.194-10.758
			l33.254-26.386C342.875,43.04,349.239,49.325,354.965,56.167z M259.64,6.197l-14.598,40.581
			c-5.721,0.112-11.384,0.717-16.95,1.792l4.851-42.26c4.634-0.465,9.33-0.706,14.092-0.706
			C251.276,5.604,255.483,5.822,259.64,6.197z M156.902,38.361l18.329,38.925c-3.952,4.118-7.503,8.591-10.688,13.307
			l-26.408-33.266C143.774,50.43,150.053,44.082,156.902,38.361z"/>
	</g>
</g>
<g>
</g>
<g>
</g>
<g>
</g>
<g>
</g>
<g>
</g>
<g>
</g>
<g>
</g>
<g>
</g>
<g>
</g>
<g>
</g>
<g>
</g>
<g>
</g>
<g>
</g>
<g>
</g>
<g>
</g>
</svg>
