<?xml version="1.0" encoding="iso-8859-1"?>
<!-- Generator: Adobe Illustrator 18.1.1, SVG Export Plug-In . SVG Version: 6.00 Build 0)  -->
<svg version="1.1" id="Capa_1" xmlns="http://www.w3.org/2000/svg" xmlns:xlink="http://www.w3.org/1999/xlink" x="0px" y="0px"
	 viewBox="0 0 31.696 31.696" style="enable-background:new 0 0 31.696 31.696;" xml:space="preserve">
<g>
	<path d="M27.127,3.842c-9.267,0-10.836-3.516-10.85-3.549C16.208,0.121,16.043,0.006,15.852,0c0,0-0.004,0-0.009,0
		c-0.184,0-0.353,0.115-0.425,0.285c-0.014,0.037-1.616,3.557-10.85,3.557c-0.255,0-0.461,0.211-0.461,0.463v15.762
		c0,6.451,11.085,11.383,11.553,11.59c0.062,0.027,0.122,0.039,0.188,0.039c0.061,0,0.125-0.012,0.184-0.039
		c0.474-0.207,11.557-5.139,11.557-11.59V4.305C27.588,4.053,27.382,3.842,27.127,3.842z M25.039,19.15
		c0,5.051-8.677,8.912-9.047,9.072c-0.044,0.023-0.097,0.031-0.144,0.031c-0.052,0-0.1-0.008-0.148-0.031
		c-0.365-0.16-9.044-4.021-9.044-9.072V6.811c0-0.199,0.162-0.363,0.362-0.363c7.23,0,8.483-2.754,8.493-2.783
		c0.058-0.135,0.189-0.223,0.334-0.223c0.004,0,0.006,0,0.006,0c0.149,0.002,0.28,0.092,0.333,0.229
		c0.011,0.025,1.239,2.777,8.495,2.777c0.2,0,0.36,0.164,0.36,0.363V19.15z"/>
	<g>
	</g>
	<g>
	</g>
	<g>
	</g>
	<g>
	</g>
	<g>
	</g>
	<g>
	</g>
	<g>
	</g>
	<g>
	</g>
	<g>
	</g>
	<g>
	</g>
	<g>
	</g>
	<g>
	</g>
	<g>
	</g>
	<g>
	</g>
	<g>
	</g>
</g>
<g>
</g>
<g>
</g>
<g>
</g>
<g>
</g>
<g>
</g>
<g>
</g>
<g>
</g>
<g>
</g>
<g>
</g>
<g>
</g>
<g>
</g>
<g>
</g>
<g>
</g>
<g>
</g>
<g>
</g>
</svg>
