<?xml version="1.0" encoding="iso-8859-1"?>
<!-- Generator: Adobe Illustrator 16.0.0, SVG Export Plug-In . SVG Version: 6.00 Build 0)  -->
<!DOCTYPE svg PUBLIC "-//W3C//DTD SVG 1.1//EN" "http://www.w3.org/Graphics/SVG/1.1/DTD/svg11.dtd">
<svg version="1.1" id="Capa_1" xmlns="http://www.w3.org/2000/svg" xmlns:xlink="http://www.w3.org/1999/xlink" x="0px" y="0px"
	 width="29.175px" height="29.175px" viewBox="0 0 29.175 29.175" style="enable-background:new 0 0 29.175 29.175;"
	 xml:space="preserve">
<g>
	<g>
		<path d="M5.186,15.818c1.854-0.889,3.058-1.365,4.378-0.045c1.97,1.971,3.979,0.93,5.593,0.092
			c1.788-0.928,2.952-1.428,4.288-0.092c0.945,0.945,1.871,1.27,2.74,1.27c1.131,0,2.164-0.549,3.021-1.006
			c1.423-0.758,2.207-1.114,3.058-0.264l0.911-0.912c-1.565-1.565-3.235-0.677-4.575,0.038c-1.701,0.905-2.813,1.39-4.24-0.038
			c-2.073-2.072-4.137-1.002-5.795-0.142c-1.78,0.922-2.845,1.382-4.087,0.142c-2.035-2.034-4.148-1.02-5.848-0.206
			c-1.695,0.812-2.703,1.219-3.717,0.206L0,15.773C1.71,17.483,3.638,16.559,5.186,15.818z"/>
		<path d="M24.6,18.65c-1.701,0.906-2.813,1.391-4.24-0.037c-2.073-2.072-4.137-1.002-5.795-0.143
			c-1.78,0.923-2.845,1.383-4.087,0.143C8.443,16.58,6.33,17.592,4.63,18.408c-1.695,0.812-2.703,1.221-3.717,0.205L0,19.526
			c1.71,1.71,3.638,0.786,5.186,0.046c1.854-0.89,3.058-1.367,4.378-0.046c1.97,1.97,3.979,0.927,5.593,0.091
			c1.788-0.927,2.952-1.428,4.288-0.091c0.945,0.944,1.871,1.271,2.74,1.271c1.131,0,2.164-0.551,3.021-1.008
			c1.423-0.758,2.207-1.114,3.058-0.263l0.911-0.911C27.609,17.048,25.939,17.936,24.6,18.65z"/>
		<path d="M24.6,22.598c-1.701,0.905-2.813,1.39-4.24-0.037c-2.073-2.071-4.137-1.001-5.795-0.144
			c-1.78,0.923-2.845,1.385-4.087,0.144c-2.034-2.034-4.147-1.021-5.847-0.207c-1.695,0.812-2.703,1.222-3.717,0.207L0,23.472
			c1.71,1.71,3.638,0.787,5.186,0.045c1.854-0.889,3.058-1.366,4.378-0.045c1.97,1.971,3.979,0.928,5.593,0.091
			c1.788-0.926,2.952-1.428,4.288-0.091c0.945,0.945,1.871,1.271,2.74,1.271c1.131,0,2.164-0.553,3.021-1.008
			c1.423-0.759,2.207-1.115,3.058-0.264l0.911-0.912C27.609,20.996,25.939,21.882,24.6,22.598z"/>
		<circle cx="22.702" cy="7.655" r="3.224"/>
		<path d="M12.32,8.589l3.934,2.29c0,0-4.954,2.286-5.535,2.868c0.942,2.475,3.815-1.255,7.523-0.933
			c2.257,0.161,3.654,1.787,3.654,1.787l-0.27-2.701l-3.062-2.793l-6.609-3.546L7.199,9.912l1.988,1.021L12.32,8.589z"/>
	</g>
</g>
<g>
</g>
<g>
</g>
<g>
</g>
<g>
</g>
<g>
</g>
<g>
</g>
<g>
</g>
<g>
</g>
<g>
</g>
<g>
</g>
<g>
</g>
<g>
</g>
<g>
</g>
<g>
</g>
<g>
</g>
</svg>
