<?xml version="1.0" encoding="iso-8859-1"?>
<!-- Generator: Adobe Illustrator 16.0.0, SVG Export Plug-In . SVG Version: 6.00 Build 0)  -->
<!DOCTYPE svg PUBLIC "-//W3C//DTD SVG 1.1//EN" "http://www.w3.org/Graphics/SVG/1.1/DTD/svg11.dtd">
<svg version="1.1" id="Capa_1" xmlns="http://www.w3.org/2000/svg" xmlns:xlink="http://www.w3.org/1999/xlink" x="0px" y="0px"
	 width="484.854px" height="484.855px" viewBox="0 0 484.854 484.855" style="enable-background:new 0 0 484.854 484.855;"
	 xml:space="preserve">
<g>
	<g id="_x32_3_19_">
		<g>
			<path d="M133.314,331.328c9.665,0,17.5-7.836,17.5-17.5v-41.52h116.42v39.131c0,9.665,7.835,17.5,17.5,17.5
				c9.664,0,17.5-7.835,17.5-17.5V121.241c0-32.836,27.164-40.291,30.262-41.032l-0.17,0.038l-0.002-0.01
				c7.717-1.827,13.465-8.744,13.465-17.018c0-9.667-7.838-17.505-17.506-17.505c-1.164,0-2.299,0.12-3.398,0.336v-0.002
				c-0.01,0.002-0.021,0.005-0.031,0.007c-0.182,0.036-0.357,0.086-0.539,0.128c-20.076,4.612-57.079,25.964-57.079,75.058v36.614
				h-116.42v-34.227c0-31.065,24.301-39.409,29.546-40.847c8.167-1.482,14.365-8.615,14.365-17.209
				c0-9.667-7.837-17.505-17.505-17.505c-1.288,0-2.54,0.148-3.748,0.412l-0.01-0.045c-19.939,4.34-57.648,25.642-57.648,75.194
				v190.197C115.814,323.492,123.649,331.328,133.314,331.328z M150.814,192.856h116.42v44.453h-116.42V192.856z"/>
			<path d="M20.42,377.873c22.687-14.367,52.507-29.75,60.738-29.75c4.17,0,14.228,7.678,20.883,12.759
				c12.271,9.368,24.96,19.054,39.086,19.054c13.238,0,26.26-8.635,40.046-17.777c9.773-6.479,21.937-14.545,28.636-14.545
				c6.836,0,18.967,8.41,28.715,15.166c12.88,8.928,25.045,17.36,37.239,17.36c12.228,0,23.551-8.354,35.537-17.198
				c9.934-7.328,21.193-15.635,29.059-15.635c7.812,0,19.07,8.184,29.004,15.402c12.262,8.912,23.844,17.328,36.406,17.328
				c20.197,0,59.715-26.233,71.346-34.273c6.043-4.177,7.555-12.461,3.379-18.502c-4.178-6.043-12.463-7.555-18.504-3.377
				c-20.646,14.273-48.164,29.557-56.221,29.557c-3.918,0-14.059-7.371-20.77-12.248c-13.211-9.602-28.186-20.484-44.641-20.484
				c-16.615,0-31.615,11.066-44.85,20.83c-6.067,4.478-16.224,11.97-19.748,12.004c-3.888-0.008-15.278-7.904-22.086-12.622
				c-14.116-9.786-28.714-19.905-43.869-19.905c-14.717,0-29.266,9.646-43.336,18.979c-8.494,5.631-20.126,13.346-25.347,13.346
				c-5.134,0-15.429-7.859-22.946-13.598c-11.73-8.957-23.861-18.217-37.023-18.217c-19.951,0-62.429,25.932-74.973,33.879
				c-6.204,3.93-8.046,12.146-4.116,18.351C5.998,379.958,14.215,381.801,20.42,377.873z"/>
			<path d="M482.494,386.261c-4.178-6.042-12.463-7.555-18.504-3.377c-20.646,14.272-48.164,29.556-56.221,29.556
				c-3.918,0-14.059-7.37-20.77-12.247c-13.211-9.602-28.186-20.484-44.641-20.484c-16.615,0-31.615,11.066-44.85,20.831
				c-6.067,4.477-16.224,11.969-19.748,12.003c-3.888-0.007-15.278-7.904-22.086-12.622c-14.116-9.786-28.714-19.905-43.869-19.905
				c-14.717,0-29.266,9.647-43.336,18.978c-8.494,5.633-20.126,13.347-25.347,13.347c-5.134,0-15.429-7.859-22.946-13.599
				c-11.73-8.955-23.861-18.216-37.023-18.216c-19.951,0-62.429,25.932-74.973,33.878c-6.204,3.932-8.046,12.146-4.116,18.352
				c3.93,6.204,12.146,8.048,18.351,4.119c22.687-14.367,52.507-29.75,60.738-29.75c4.17,0,14.228,7.678,20.883,12.759
				c12.271,9.368,24.96,19.054,39.086,19.054c13.238,0,26.26-8.635,40.046-17.777c9.773-6.479,21.937-14.546,28.636-14.546
				c6.836,0,18.967,8.41,28.715,15.167c12.88,8.929,25.045,17.36,37.239,17.36c12.229,0,23.551-8.354,35.539-17.198
				c9.934-7.328,21.191-15.635,29.059-15.635c7.811,0,19.068,8.183,29.004,15.402c12.262,8.912,23.844,17.329,36.406,17.329
				c20.195,0,59.715-26.234,71.346-34.274C485.158,400.587,486.67,392.302,482.494,386.261z"/>
		</g>
	</g>
</g>
<g>
</g>
<g>
</g>
<g>
</g>
<g>
</g>
<g>
</g>
<g>
</g>
<g>
</g>
<g>
</g>
<g>
</g>
<g>
</g>
<g>
</g>
<g>
</g>
<g>
</g>
<g>
</g>
<g>
</g>
</svg>
