<?xml version="1.0" encoding="iso-8859-1"?>
<!-- Generator: Adobe Illustrator 16.0.0, SVG Export Plug-In . SVG Version: 6.00 Build 0)  -->
<!DOCTYPE svg PUBLIC "-//W3C//DTD SVG 1.1//EN" "http://www.w3.org/Graphics/SVG/1.1/DTD/svg11.dtd">
<svg version="1.1" id="Capa_1" xmlns="http://www.w3.org/2000/svg" xmlns:xlink="http://www.w3.org/1999/xlink" x="0px" y="0px"
	 width="106.408px" height="106.408px" viewBox="0 0 106.408 106.408" style="enable-background:new 0 0 106.408 106.408;"
	 xml:space="preserve">
<g>
	<g>
		<path id="path3522" d="M20.3,19.916c0-1.77,1.412-2.927,3.167-2.927h13.355c1.752,0,3.164,1.157,3.164,2.927
			c0,1.752-1.412,2.913-3.164,2.913H23.466C21.714,22.831,20.3,21.667,20.3,19.916z M91.045,9.937
			c1.984-0.176,4.3,0.292,6.552,2.303c2.121,1.896,2.782,3.906,2.778,5.686c-0.019,3.226-3.929,3.66-6.344,1.524l-3.992-3.537
			C87.628,13.775,87.833,10.22,91.045,9.937z M22.891,96.216c-1.777,0.005-3.78-0.661-5.68-2.78
			c-2.005-2.245-2.473-4.558-2.302-6.533c0.281-3.216,3.837-3.419,5.974-1.006l3.536,3.987C26.557,92.3,26.119,96.212,22.891,96.216
			z M48.738,30.794c3.226-0.015,3.99,1.821,1.713,4.106c0,0-35.573,35.768-37.768,38.129c-2.906,3.118-4.699,7.274-4.699,11.873
			c0,9.733,7.069,17.604,16.8,17.604c4.5,0,6.266-0.725,7.958-2.057c0.714-0.563,68.947-67.01,70.723-69.701
			c1.856-2.804,2.942-6.193,2.942-9.865c0.002-9.715-7.484-16.983-17.199-16.983c-2.281,0-4.453,0.404-6.449,1.149
			c-3.026,1.126-5.383,3.25-5.798,3.678C76.542,9.157,59.24,26.958,59.24,26.958c-2.247,2.31-4.663,3.608-5.399,2.896
			c-0.729-0.711,0.5-3.163,2.749-5.479l8.933-9.203c2.251-2.313,1.455-4.2-1.771-4.216l-40.747-0.192
			c0,0-14.166-0.261-22.989,10.861c-0.534,0.65,12.04,9.283,23.235,9.283C23.491,30.908,35.469,30.854,48.738,30.794"/>
		<path id="path3524" d="M60.75,84.496c-3.223-0.01-7.739,1.774-10.089,3.982l-8.513,7.993c-2.35,2.208-1.645,4.01,1.585,4.023
			c11.41,0.044,23.987,0.092,24.184,0.092c7.806,0,16.559-7.473,16.189-7.937c-6.152-7.744-16.012-8.132-16.012-8.132L60.75,84.496"
			/>
	</g>
</g>
<g>
</g>
<g>
</g>
<g>
</g>
<g>
</g>
<g>
</g>
<g>
</g>
<g>
</g>
<g>
</g>
<g>
</g>
<g>
</g>
<g>
</g>
<g>
</g>
<g>
</g>
<g>
</g>
<g>
</g>
</svg>
